<mxfile host="app.diagrams.net" modified="2023-12-12T20:34:23.677Z" agent="Mozilla/5.0 (Windows NT 10.0; Win64; x64) AppleWebKit/537.36 (KHTML, like Gecko) Chrome/120.0.0.0 Safari/537.36 Edg/120.0.0.0" etag="3fAe4xJzS9txDamN3Hk8" version="22.1.7" type="github">
  <diagram id="lfM2r0z6IKqFITUAFskK" name="Página-2">
    <mxGraphModel dx="1666" dy="1551" grid="1" gridSize="10" guides="1" tooltips="1" connect="1" arrows="1" fold="1" page="0" pageScale="1" pageWidth="827" pageHeight="1169" math="0" shadow="0">
      <root>
        <mxCell id="0" />
        <mxCell id="1" parent="0" />
        <mxCell id="RZGnPOqAcmDjlP5rCY_A-674" value="&lt;font style=&quot;font-size: 36px;&quot;&gt;Ambiente&lt;br&gt;Cloud&lt;br&gt;&lt;/font&gt;" style="rounded=1;whiteSpace=wrap;html=1;absoluteArcSize=1;arcSize=14;strokeWidth=2;fontSize=16;glass=0;shadow=1;labelBackgroundColor=none;labelPosition=center;verticalLabelPosition=top;align=left;verticalAlign=bottom;opacity=50;fillColor=#dae8fc;strokeColor=#6c8ebf;" parent="1" vertex="1">
          <mxGeometry x="420" y="-409.25" width="540" height="360" as="geometry" />
        </mxCell>
        <mxCell id="RZGnPOqAcmDjlP5rCY_A-678" value="Servidor Cloud [Read Only]" style="rounded=1;whiteSpace=wrap;html=1;absoluteArcSize=1;arcSize=14;strokeWidth=2;fontSize=16;glass=0;shadow=1;gradientColor=none;labelBackgroundColor=none;labelPosition=center;verticalLabelPosition=top;align=right;verticalAlign=bottom;" parent="1" vertex="1">
          <mxGeometry x="600" y="-350" width="275" height="231.5" as="geometry" />
        </mxCell>
        <mxCell id="RZGnPOqAcmDjlP5rCY_A-673" value="&lt;font style=&quot;font-size: 36px;&quot;&gt;Ambiente&lt;br&gt;Local&lt;br&gt;&lt;/font&gt;" style="rounded=1;whiteSpace=wrap;html=1;absoluteArcSize=1;arcSize=14;strokeWidth=2;fontSize=16;glass=0;shadow=1;gradientColor=none;labelBackgroundColor=none;labelPosition=center;verticalLabelPosition=top;align=left;verticalAlign=bottom;opacity=50;" parent="1" vertex="1">
          <mxGeometry x="430" y="60" width="4210" height="1150" as="geometry" />
        </mxCell>
        <mxCell id="RZGnPOqAcmDjlP5rCY_A-14" style="edgeStyle=none;curved=1;rounded=0;orthogonalLoop=1;jettySize=auto;html=1;fontSize=12;startSize=8;endSize=8;" parent="1" edge="1">
          <mxGeometry relative="1" as="geometry">
            <mxPoint x="290.00000000000045" y="341.5" as="targetPoint" />
            <mxPoint x="291.5" y="341.53999999999996" as="sourcePoint" />
          </mxGeometry>
        </mxCell>
        <mxCell id="RZGnPOqAcmDjlP5rCY_A-280" value="" style="html=1;outlineConnect=0;fillColor=#CCCCCC;strokeColor=#6881B3;gradientColor=none;gradientDirection=north;strokeWidth=2;shape=mxgraph.networks.bus;gradientColor=none;gradientDirection=north;fontColor=#ffffff;perimeter=backbonePerimeter;backboneSize=20;fontSize=16;" parent="1" vertex="1">
          <mxGeometry x="600" y="618.5" width="3730" height="24.09" as="geometry" />
        </mxCell>
        <mxCell id="RZGnPOqAcmDjlP5rCY_A-316" value="" style="group" parent="1" vertex="1" connectable="0">
          <mxGeometry x="1230" y="638.5" width="700" height="501.5" as="geometry" />
        </mxCell>
        <mxCell id="RZGnPOqAcmDjlP5rCY_A-107" value="&lt;font&gt;Câmera&lt;/font&gt;&lt;br&gt;&lt;font&gt;ip:porta&lt;/font&gt;" style="shape=ext;double=1;rounded=1;whiteSpace=wrap;html=1;fontSize=16;fillColor=#dae8fc;strokeColor=#6c8ebf;" parent="RZGnPOqAcmDjlP5rCY_A-316" vertex="1">
          <mxGeometry y="260" width="120" height="50" as="geometry" />
        </mxCell>
        <mxCell id="RZGnPOqAcmDjlP5rCY_A-108" value="&lt;font&gt;Balança&lt;/font&gt;&lt;br&gt;&lt;font&gt;ip:porta&lt;/font&gt;" style="shape=ext;double=1;rounded=1;whiteSpace=wrap;html=1;fontSize=16;fillColor=#dae8fc;strokeColor=#6c8ebf;" parent="RZGnPOqAcmDjlP5rCY_A-316" vertex="1">
          <mxGeometry y="331.5" width="120" height="50" as="geometry" />
        </mxCell>
        <mxCell id="RZGnPOqAcmDjlP5rCY_A-281" value="" style="group" parent="RZGnPOqAcmDjlP5rCY_A-316" vertex="1" connectable="0">
          <mxGeometry x="165" y="140" width="535" height="361.5" as="geometry" />
        </mxCell>
        <mxCell id="RZGnPOqAcmDjlP5rCY_A-73" value="MCA KMM - Balança 1" style="rounded=1;whiteSpace=wrap;html=1;absoluteArcSize=1;arcSize=14;strokeWidth=2;fontSize=16;glass=0;shadow=1;gradientColor=none;labelBackgroundColor=none;labelPosition=center;verticalLabelPosition=top;align=center;verticalAlign=bottom;" parent="RZGnPOqAcmDjlP5rCY_A-281" vertex="1">
          <mxGeometry width="435" height="261.5" as="geometry" />
        </mxCell>
        <mxCell id="RZGnPOqAcmDjlP5rCY_A-90" value="" style="sketch=0;pointerEvents=1;shadow=0;dashed=0;html=1;strokeColor=none;fillColor=#434445;aspect=fixed;labelPosition=center;verticalLabelPosition=bottom;verticalAlign=top;align=center;outlineConnect=0;shape=mxgraph.vvd.ethernet_port;fontSize=16;" parent="RZGnPOqAcmDjlP5rCY_A-281" vertex="1">
          <mxGeometry x="20" y="20" width="50" height="50" as="geometry" />
        </mxCell>
        <mxCell id="RZGnPOqAcmDjlP5rCY_A-91" value="" style="sketch=0;pointerEvents=1;shadow=0;dashed=0;html=1;strokeColor=none;fillColor=#434445;aspect=fixed;labelPosition=center;verticalLabelPosition=bottom;verticalAlign=top;align=center;outlineConnect=0;shape=mxgraph.vvd.ethernet_port;fontSize=16;" parent="RZGnPOqAcmDjlP5rCY_A-281" vertex="1">
          <mxGeometry x="20" y="70" width="50" height="50" as="geometry" />
        </mxCell>
        <mxCell id="RZGnPOqAcmDjlP5rCY_A-92" value="" style="sketch=0;pointerEvents=1;shadow=0;dashed=0;html=1;strokeColor=none;fillColor=#434445;aspect=fixed;labelPosition=center;verticalLabelPosition=bottom;verticalAlign=top;align=center;outlineConnect=0;shape=mxgraph.vvd.ethernet_port;fontSize=16;" parent="RZGnPOqAcmDjlP5rCY_A-281" vertex="1">
          <mxGeometry x="20" y="120" width="50" height="50" as="geometry" />
        </mxCell>
        <mxCell id="RZGnPOqAcmDjlP5rCY_A-93" value="" style="sketch=0;pointerEvents=1;shadow=0;dashed=0;html=1;strokeColor=none;fillColor=#434445;aspect=fixed;labelPosition=center;verticalLabelPosition=bottom;verticalAlign=top;align=center;outlineConnect=0;shape=mxgraph.vvd.ethernet_port;fontSize=16;" parent="RZGnPOqAcmDjlP5rCY_A-281" vertex="1">
          <mxGeometry x="20" y="170" width="50" height="50" as="geometry" />
        </mxCell>
        <mxCell id="RZGnPOqAcmDjlP5rCY_A-106" value="CLP&lt;br&gt;&lt;font&gt;ip:porta&lt;/font&gt;" style="shape=ext;double=1;rounded=1;whiteSpace=wrap;html=1;fontSize=16;fillColor=#dae8fc;strokeColor=#6c8ebf;" parent="RZGnPOqAcmDjlP5rCY_A-281" vertex="1">
          <mxGeometry x="95" y="70" width="310" height="50" as="geometry" />
        </mxCell>
        <mxCell id="RZGnPOqAcmDjlP5rCY_A-76" style="edgeStyle=none;curved=1;rounded=0;orthogonalLoop=1;jettySize=auto;html=1;fontSize=12;startSize=8;endSize=8;endArrow=baseDash;endFill=0;startArrow=baseDash;startFill=0;strokeWidth=4;strokeColor=#0000CC;exitX=0;exitY=0.5;exitDx=0;exitDy=0;" parent="RZGnPOqAcmDjlP5rCY_A-281" source="RZGnPOqAcmDjlP5rCY_A-106" target="RZGnPOqAcmDjlP5rCY_A-91" edge="1">
          <mxGeometry relative="1" as="geometry" />
        </mxCell>
        <mxCell id="RZGnPOqAcmDjlP5rCY_A-116" style="edgeStyle=none;curved=1;rounded=0;orthogonalLoop=1;jettySize=auto;html=1;exitX=0.5;exitY=0;exitDx=0;exitDy=0;fontSize=12;startSize=8;endSize=8;" parent="RZGnPOqAcmDjlP5rCY_A-281" source="RZGnPOqAcmDjlP5rCY_A-111" target="RZGnPOqAcmDjlP5rCY_A-106" edge="1">
          <mxGeometry relative="1" as="geometry" />
        </mxCell>
        <mxCell id="RZGnPOqAcmDjlP5rCY_A-111" value="&lt;font&gt;Módulo Conversor Serial&lt;/font&gt;&lt;br&gt;" style="shape=ext;double=1;rounded=1;whiteSpace=wrap;html=1;fontSize=16;" parent="RZGnPOqAcmDjlP5rCY_A-281" vertex="1">
          <mxGeometry x="95" y="156.5" width="80" height="70" as="geometry" />
        </mxCell>
        <mxCell id="RZGnPOqAcmDjlP5rCY_A-117" style="edgeStyle=none;curved=1;rounded=0;orthogonalLoop=1;jettySize=auto;html=1;exitX=0.5;exitY=0;exitDx=0;exitDy=0;fontSize=12;startSize=8;endSize=8;" parent="RZGnPOqAcmDjlP5rCY_A-281" source="RZGnPOqAcmDjlP5rCY_A-113" target="RZGnPOqAcmDjlP5rCY_A-106" edge="1">
          <mxGeometry relative="1" as="geometry" />
        </mxCell>
        <mxCell id="RZGnPOqAcmDjlP5rCY_A-113" value="&lt;font&gt;Módulo Conversor Serial&lt;/font&gt;&lt;br&gt;" style="shape=ext;double=1;rounded=1;whiteSpace=wrap;html=1;fontSize=16;" parent="RZGnPOqAcmDjlP5rCY_A-281" vertex="1">
          <mxGeometry x="175" y="156.5" width="80" height="70" as="geometry" />
        </mxCell>
        <mxCell id="RZGnPOqAcmDjlP5rCY_A-118" style="edgeStyle=none;curved=1;rounded=0;orthogonalLoop=1;jettySize=auto;html=1;exitX=0.5;exitY=0;exitDx=0;exitDy=0;fontSize=12;startSize=8;endSize=8;" parent="RZGnPOqAcmDjlP5rCY_A-281" source="RZGnPOqAcmDjlP5rCY_A-114" target="RZGnPOqAcmDjlP5rCY_A-106" edge="1">
          <mxGeometry relative="1" as="geometry" />
        </mxCell>
        <mxCell id="RZGnPOqAcmDjlP5rCY_A-114" value="&lt;font&gt;Módulo Conversor Serial&lt;/font&gt;&lt;br&gt;" style="shape=ext;double=1;rounded=1;whiteSpace=wrap;html=1;fontSize=16;" parent="RZGnPOqAcmDjlP5rCY_A-281" vertex="1">
          <mxGeometry x="255" y="156.5" width="80" height="70" as="geometry" />
        </mxCell>
        <mxCell id="RZGnPOqAcmDjlP5rCY_A-119" style="edgeStyle=none;curved=1;rounded=0;orthogonalLoop=1;jettySize=auto;html=1;exitX=0.5;exitY=0;exitDx=0;exitDy=0;fontSize=12;startSize=8;endSize=8;" parent="RZGnPOqAcmDjlP5rCY_A-281" source="RZGnPOqAcmDjlP5rCY_A-115" target="RZGnPOqAcmDjlP5rCY_A-106" edge="1">
          <mxGeometry relative="1" as="geometry" />
        </mxCell>
        <mxCell id="RZGnPOqAcmDjlP5rCY_A-115" value="&lt;font&gt;Módulo Conversor Serial&lt;/font&gt;&lt;br&gt;" style="shape=ext;double=1;rounded=1;whiteSpace=wrap;html=1;fontSize=16;" parent="RZGnPOqAcmDjlP5rCY_A-281" vertex="1">
          <mxGeometry x="335" y="156.5" width="80" height="70" as="geometry" />
        </mxCell>
        <mxCell id="RZGnPOqAcmDjlP5rCY_A-121" style="edgeStyle=none;curved=1;rounded=0;orthogonalLoop=1;jettySize=auto;html=1;exitX=0.5;exitY=0;exitDx=0;exitDy=0;entryX=0.5;entryY=1;entryDx=0;entryDy=0;fontSize=12;startSize=8;endSize=8;" parent="RZGnPOqAcmDjlP5rCY_A-281" source="RZGnPOqAcmDjlP5rCY_A-120" target="RZGnPOqAcmDjlP5rCY_A-111" edge="1">
          <mxGeometry relative="1" as="geometry" />
        </mxCell>
        <mxCell id="RZGnPOqAcmDjlP5rCY_A-120" value="&lt;font&gt;Display 1&lt;/font&gt;" style="shape=ext;double=1;rounded=1;whiteSpace=wrap;html=1;fontSize=16;" parent="RZGnPOqAcmDjlP5rCY_A-281" vertex="1">
          <mxGeometry x="95" y="291.5" width="80" height="70" as="geometry" />
        </mxCell>
        <mxCell id="RZGnPOqAcmDjlP5rCY_A-124" style="edgeStyle=none;curved=1;rounded=0;orthogonalLoop=1;jettySize=auto;html=1;fontSize=12;startSize=8;endSize=8;" parent="RZGnPOqAcmDjlP5rCY_A-281" source="RZGnPOqAcmDjlP5rCY_A-122" target="RZGnPOqAcmDjlP5rCY_A-113" edge="1">
          <mxGeometry relative="1" as="geometry" />
        </mxCell>
        <mxCell id="RZGnPOqAcmDjlP5rCY_A-122" value="&lt;font&gt;Display 2&lt;/font&gt;" style="shape=ext;double=1;rounded=1;whiteSpace=wrap;html=1;fontSize=16;" parent="RZGnPOqAcmDjlP5rCY_A-281" vertex="1">
          <mxGeometry x="177.5" y="291.5" width="80" height="70" as="geometry" />
        </mxCell>
        <mxCell id="RZGnPOqAcmDjlP5rCY_A-127" style="edgeStyle=none;curved=1;rounded=0;orthogonalLoop=1;jettySize=auto;html=1;exitX=0.5;exitY=0;exitDx=0;exitDy=0;fontSize=12;startSize=8;endSize=8;" parent="RZGnPOqAcmDjlP5rCY_A-281" source="RZGnPOqAcmDjlP5rCY_A-125" target="RZGnPOqAcmDjlP5rCY_A-114" edge="1">
          <mxGeometry relative="1" as="geometry" />
        </mxCell>
        <mxCell id="RZGnPOqAcmDjlP5rCY_A-125" value="&lt;font&gt;Antena 1&lt;/font&gt;" style="shape=ext;double=1;rounded=1;whiteSpace=wrap;html=1;fontSize=16;" parent="RZGnPOqAcmDjlP5rCY_A-281" vertex="1">
          <mxGeometry x="257.5" y="291.5" width="80" height="70" as="geometry" />
        </mxCell>
        <mxCell id="RZGnPOqAcmDjlP5rCY_A-129" style="edgeStyle=none;curved=1;rounded=0;orthogonalLoop=1;jettySize=auto;html=1;entryX=0.5;entryY=1;entryDx=0;entryDy=0;fontSize=12;startSize=8;endSize=8;" parent="RZGnPOqAcmDjlP5rCY_A-281" source="RZGnPOqAcmDjlP5rCY_A-128" target="RZGnPOqAcmDjlP5rCY_A-115" edge="1">
          <mxGeometry relative="1" as="geometry" />
        </mxCell>
        <mxCell id="RZGnPOqAcmDjlP5rCY_A-128" value="&lt;font&gt;Antena 2&lt;/font&gt;" style="shape=ext;double=1;rounded=1;whiteSpace=wrap;html=1;fontSize=16;" parent="RZGnPOqAcmDjlP5rCY_A-281" vertex="1">
          <mxGeometry x="337.5" y="291.5" width="80" height="70" as="geometry" />
        </mxCell>
        <mxCell id="RZGnPOqAcmDjlP5rCY_A-132" style="edgeStyle=none;curved=1;rounded=0;orthogonalLoop=1;jettySize=auto;html=1;exitX=0;exitY=0.5;exitDx=0;exitDy=0;fontSize=12;startSize=8;endSize=8;entryX=1;entryY=0.5;entryDx=0;entryDy=0;" parent="RZGnPOqAcmDjlP5rCY_A-281" source="RZGnPOqAcmDjlP5rCY_A-130" target="RZGnPOqAcmDjlP5rCY_A-106" edge="1">
          <mxGeometry relative="1" as="geometry">
            <mxPoint x="405" y="81.5" as="targetPoint" />
          </mxGeometry>
        </mxCell>
        <mxCell id="RZGnPOqAcmDjlP5rCY_A-130" value="&lt;font&gt;Sensores&lt;/font&gt;" style="shape=ext;double=1;rounded=1;whiteSpace=wrap;html=1;fontSize=16;" parent="RZGnPOqAcmDjlP5rCY_A-281" vertex="1">
          <mxGeometry x="455" y="28.25" width="80" height="70" as="geometry" />
        </mxCell>
        <mxCell id="RZGnPOqAcmDjlP5rCY_A-131" style="edgeStyle=none;curved=1;rounded=0;orthogonalLoop=1;jettySize=auto;html=1;exitX=1;exitY=0.25;exitDx=0;exitDy=0;fontSize=12;startSize=8;endSize=8;" parent="RZGnPOqAcmDjlP5rCY_A-281" source="RZGnPOqAcmDjlP5rCY_A-106" target="RZGnPOqAcmDjlP5rCY_A-106" edge="1">
          <mxGeometry relative="1" as="geometry" />
        </mxCell>
        <mxCell id="RZGnPOqAcmDjlP5rCY_A-134" style="edgeStyle=none;curved=1;rounded=0;orthogonalLoop=1;jettySize=auto;html=1;entryX=1;entryY=0.75;entryDx=0;entryDy=0;fontSize=12;startSize=8;endSize=8;" parent="RZGnPOqAcmDjlP5rCY_A-281" source="RZGnPOqAcmDjlP5rCY_A-133" target="RZGnPOqAcmDjlP5rCY_A-106" edge="1">
          <mxGeometry relative="1" as="geometry" />
        </mxCell>
        <mxCell id="RZGnPOqAcmDjlP5rCY_A-133" value="&lt;font&gt;Cancelas&lt;/font&gt;" style="shape=ext;double=1;rounded=1;whiteSpace=wrap;html=1;fontSize=16;" parent="RZGnPOqAcmDjlP5rCY_A-281" vertex="1">
          <mxGeometry x="455" y="114.75" width="80" height="70" as="geometry" />
        </mxCell>
        <mxCell id="RZGnPOqAcmDjlP5rCY_A-84" style="edgeStyle=none;curved=1;rounded=0;orthogonalLoop=1;jettySize=auto;html=1;fontSize=12;fontColor=#0000CC;strokeWidth=4;strokeColor=#0000CC;endArrow=baseDash;endFill=0;startArrow=baseDash;startFill=0;exitX=1;exitY=0.5;exitDx=0;exitDy=0;" parent="RZGnPOqAcmDjlP5rCY_A-316" source="RZGnPOqAcmDjlP5rCY_A-107" target="RZGnPOqAcmDjlP5rCY_A-92" edge="1">
          <mxGeometry relative="1" as="geometry">
            <mxPoint x="74.99999999999955" y="250.38461538461547" as="sourcePoint" />
          </mxGeometry>
        </mxCell>
        <mxCell id="RZGnPOqAcmDjlP5rCY_A-74" style="rounded=0;orthogonalLoop=1;jettySize=auto;html=1;fontSize=12;strokeColor=#0000CC;strokeWidth=4;endArrow=baseDash;endFill=0;startArrow=baseDash;startFill=0;exitX=1;exitY=0.5;exitDx=0;exitDy=0;" parent="RZGnPOqAcmDjlP5rCY_A-316" source="RZGnPOqAcmDjlP5rCY_A-108" target="RZGnPOqAcmDjlP5rCY_A-93" edge="1">
          <mxGeometry relative="1" as="geometry">
            <mxPoint x="119.99999999999955" y="369.0540540540542" as="sourcePoint" />
          </mxGeometry>
        </mxCell>
        <mxCell id="RZGnPOqAcmDjlP5rCY_A-96" style="edgeStyle=none;curved=1;rounded=0;orthogonalLoop=1;jettySize=auto;html=1;fontSize=12;startSize=8;endSize=8;strokeWidth=4;strokeColor=#0000CC;endArrow=baseDash;endFill=0;startArrow=baseDash;startFill=0;" parent="RZGnPOqAcmDjlP5rCY_A-316" target="RZGnPOqAcmDjlP5rCY_A-90" edge="1">
          <mxGeometry relative="1" as="geometry">
            <mxPoint x="210" as="sourcePoint" />
          </mxGeometry>
        </mxCell>
        <mxCell id="RZGnPOqAcmDjlP5rCY_A-206" value="Rede Lan&lt;br style=&quot;border-color: var(--border-color);&quot;&gt;Comunicação: TCP/IP" style="edgeLabel;html=1;align=center;verticalAlign=middle;resizable=0;points=[];fontSize=16;" parent="RZGnPOqAcmDjlP5rCY_A-96" vertex="1" connectable="0">
          <mxGeometry x="-0.1428" y="-3" relative="1" as="geometry">
            <mxPoint as="offset" />
          </mxGeometry>
        </mxCell>
        <mxCell id="RZGnPOqAcmDjlP5rCY_A-317" value="" style="group" parent="1" vertex="1" connectable="0">
          <mxGeometry x="1980" y="638.5" width="700" height="501.5" as="geometry" />
        </mxCell>
        <mxCell id="RZGnPOqAcmDjlP5rCY_A-320" value="&lt;font&gt;Câmera&lt;/font&gt;&lt;br&gt;&lt;font&gt;ip:porta&lt;/font&gt;" style="shape=ext;double=1;rounded=1;whiteSpace=wrap;html=1;fontSize=16;fillColor=#dae8fc;strokeColor=#6c8ebf;" parent="RZGnPOqAcmDjlP5rCY_A-317" vertex="1">
          <mxGeometry y="260" width="120" height="50" as="geometry" />
        </mxCell>
        <mxCell id="RZGnPOqAcmDjlP5rCY_A-321" value="&lt;font&gt;Balança&lt;/font&gt;&lt;br&gt;&lt;font&gt;ip:porta&lt;/font&gt;" style="shape=ext;double=1;rounded=1;whiteSpace=wrap;html=1;fontSize=16;fillColor=#dae8fc;strokeColor=#6c8ebf;" parent="RZGnPOqAcmDjlP5rCY_A-317" vertex="1">
          <mxGeometry y="331.5" width="120" height="50" as="geometry" />
        </mxCell>
        <mxCell id="RZGnPOqAcmDjlP5rCY_A-322" value="" style="group" parent="RZGnPOqAcmDjlP5rCY_A-317" vertex="1" connectable="0">
          <mxGeometry x="165" y="140" width="535" height="361.5" as="geometry" />
        </mxCell>
        <mxCell id="RZGnPOqAcmDjlP5rCY_A-323" value="MCA KMM - Balança 2" style="rounded=1;whiteSpace=wrap;html=1;absoluteArcSize=1;arcSize=14;strokeWidth=2;fontSize=16;glass=0;shadow=1;gradientColor=none;labelBackgroundColor=none;labelPosition=center;verticalLabelPosition=top;align=center;verticalAlign=bottom;" parent="RZGnPOqAcmDjlP5rCY_A-322" vertex="1">
          <mxGeometry width="435" height="261.5" as="geometry" />
        </mxCell>
        <mxCell id="RZGnPOqAcmDjlP5rCY_A-324" value="" style="sketch=0;pointerEvents=1;shadow=0;dashed=0;html=1;strokeColor=none;fillColor=#434445;aspect=fixed;labelPosition=center;verticalLabelPosition=bottom;verticalAlign=top;align=center;outlineConnect=0;shape=mxgraph.vvd.ethernet_port;fontSize=16;" parent="RZGnPOqAcmDjlP5rCY_A-322" vertex="1">
          <mxGeometry x="20" y="20" width="50" height="50" as="geometry" />
        </mxCell>
        <mxCell id="RZGnPOqAcmDjlP5rCY_A-325" value="" style="sketch=0;pointerEvents=1;shadow=0;dashed=0;html=1;strokeColor=none;fillColor=#434445;aspect=fixed;labelPosition=center;verticalLabelPosition=bottom;verticalAlign=top;align=center;outlineConnect=0;shape=mxgraph.vvd.ethernet_port;fontSize=16;" parent="RZGnPOqAcmDjlP5rCY_A-322" vertex="1">
          <mxGeometry x="20" y="70" width="50" height="50" as="geometry" />
        </mxCell>
        <mxCell id="RZGnPOqAcmDjlP5rCY_A-326" value="" style="sketch=0;pointerEvents=1;shadow=0;dashed=0;html=1;strokeColor=none;fillColor=#434445;aspect=fixed;labelPosition=center;verticalLabelPosition=bottom;verticalAlign=top;align=center;outlineConnect=0;shape=mxgraph.vvd.ethernet_port;fontSize=16;" parent="RZGnPOqAcmDjlP5rCY_A-322" vertex="1">
          <mxGeometry x="20" y="120" width="50" height="50" as="geometry" />
        </mxCell>
        <mxCell id="RZGnPOqAcmDjlP5rCY_A-327" value="" style="sketch=0;pointerEvents=1;shadow=0;dashed=0;html=1;strokeColor=none;fillColor=#434445;aspect=fixed;labelPosition=center;verticalLabelPosition=bottom;verticalAlign=top;align=center;outlineConnect=0;shape=mxgraph.vvd.ethernet_port;fontSize=16;" parent="RZGnPOqAcmDjlP5rCY_A-322" vertex="1">
          <mxGeometry x="20" y="170" width="50" height="50" as="geometry" />
        </mxCell>
        <mxCell id="RZGnPOqAcmDjlP5rCY_A-328" value="CLP&lt;br&gt;&lt;font&gt;ip:porta&lt;/font&gt;" style="shape=ext;double=1;rounded=1;whiteSpace=wrap;html=1;fontSize=16;fillColor=#dae8fc;strokeColor=#6c8ebf;" parent="RZGnPOqAcmDjlP5rCY_A-322" vertex="1">
          <mxGeometry x="95" y="70" width="310" height="50" as="geometry" />
        </mxCell>
        <mxCell id="RZGnPOqAcmDjlP5rCY_A-329" style="edgeStyle=none;curved=1;rounded=0;orthogonalLoop=1;jettySize=auto;html=1;fontSize=12;startSize=8;endSize=8;endArrow=baseDash;endFill=0;startArrow=baseDash;startFill=0;strokeWidth=4;strokeColor=#0000CC;exitX=0;exitY=0.5;exitDx=0;exitDy=0;" parent="RZGnPOqAcmDjlP5rCY_A-322" source="RZGnPOqAcmDjlP5rCY_A-328" target="RZGnPOqAcmDjlP5rCY_A-325" edge="1">
          <mxGeometry relative="1" as="geometry" />
        </mxCell>
        <mxCell id="RZGnPOqAcmDjlP5rCY_A-330" style="edgeStyle=none;curved=1;rounded=0;orthogonalLoop=1;jettySize=auto;html=1;exitX=0.5;exitY=0;exitDx=0;exitDy=0;fontSize=12;startSize=8;endSize=8;" parent="RZGnPOqAcmDjlP5rCY_A-322" source="RZGnPOqAcmDjlP5rCY_A-331" target="RZGnPOqAcmDjlP5rCY_A-328" edge="1">
          <mxGeometry relative="1" as="geometry" />
        </mxCell>
        <mxCell id="RZGnPOqAcmDjlP5rCY_A-331" value="&lt;font&gt;Módulo Conversor Serial&lt;/font&gt;&lt;br&gt;" style="shape=ext;double=1;rounded=1;whiteSpace=wrap;html=1;fontSize=16;" parent="RZGnPOqAcmDjlP5rCY_A-322" vertex="1">
          <mxGeometry x="95" y="156.5" width="80" height="70" as="geometry" />
        </mxCell>
        <mxCell id="RZGnPOqAcmDjlP5rCY_A-332" style="edgeStyle=none;curved=1;rounded=0;orthogonalLoop=1;jettySize=auto;html=1;exitX=0.5;exitY=0;exitDx=0;exitDy=0;fontSize=12;startSize=8;endSize=8;" parent="RZGnPOqAcmDjlP5rCY_A-322" source="RZGnPOqAcmDjlP5rCY_A-333" target="RZGnPOqAcmDjlP5rCY_A-328" edge="1">
          <mxGeometry relative="1" as="geometry" />
        </mxCell>
        <mxCell id="RZGnPOqAcmDjlP5rCY_A-333" value="&lt;font&gt;Módulo Conversor Serial&lt;/font&gt;&lt;br&gt;" style="shape=ext;double=1;rounded=1;whiteSpace=wrap;html=1;fontSize=16;" parent="RZGnPOqAcmDjlP5rCY_A-322" vertex="1">
          <mxGeometry x="175" y="156.5" width="80" height="70" as="geometry" />
        </mxCell>
        <mxCell id="RZGnPOqAcmDjlP5rCY_A-334" style="edgeStyle=none;curved=1;rounded=0;orthogonalLoop=1;jettySize=auto;html=1;exitX=0.5;exitY=0;exitDx=0;exitDy=0;fontSize=12;startSize=8;endSize=8;" parent="RZGnPOqAcmDjlP5rCY_A-322" source="RZGnPOqAcmDjlP5rCY_A-335" target="RZGnPOqAcmDjlP5rCY_A-328" edge="1">
          <mxGeometry relative="1" as="geometry" />
        </mxCell>
        <mxCell id="RZGnPOqAcmDjlP5rCY_A-335" value="&lt;font&gt;Módulo Conversor Serial&lt;/font&gt;&lt;br&gt;" style="shape=ext;double=1;rounded=1;whiteSpace=wrap;html=1;fontSize=16;" parent="RZGnPOqAcmDjlP5rCY_A-322" vertex="1">
          <mxGeometry x="255" y="156.5" width="80" height="70" as="geometry" />
        </mxCell>
        <mxCell id="RZGnPOqAcmDjlP5rCY_A-336" style="edgeStyle=none;curved=1;rounded=0;orthogonalLoop=1;jettySize=auto;html=1;exitX=0.5;exitY=0;exitDx=0;exitDy=0;fontSize=12;startSize=8;endSize=8;" parent="RZGnPOqAcmDjlP5rCY_A-322" source="RZGnPOqAcmDjlP5rCY_A-337" target="RZGnPOqAcmDjlP5rCY_A-328" edge="1">
          <mxGeometry relative="1" as="geometry" />
        </mxCell>
        <mxCell id="RZGnPOqAcmDjlP5rCY_A-337" value="&lt;font&gt;Módulo Conversor Serial&lt;/font&gt;&lt;br&gt;" style="shape=ext;double=1;rounded=1;whiteSpace=wrap;html=1;fontSize=16;" parent="RZGnPOqAcmDjlP5rCY_A-322" vertex="1">
          <mxGeometry x="335" y="156.5" width="80" height="70" as="geometry" />
        </mxCell>
        <mxCell id="RZGnPOqAcmDjlP5rCY_A-338" style="edgeStyle=none;curved=1;rounded=0;orthogonalLoop=1;jettySize=auto;html=1;exitX=0.5;exitY=0;exitDx=0;exitDy=0;entryX=0.5;entryY=1;entryDx=0;entryDy=0;fontSize=12;startSize=8;endSize=8;" parent="RZGnPOqAcmDjlP5rCY_A-322" source="RZGnPOqAcmDjlP5rCY_A-339" target="RZGnPOqAcmDjlP5rCY_A-331" edge="1">
          <mxGeometry relative="1" as="geometry" />
        </mxCell>
        <mxCell id="RZGnPOqAcmDjlP5rCY_A-339" value="&lt;font&gt;Display 1&lt;/font&gt;" style="shape=ext;double=1;rounded=1;whiteSpace=wrap;html=1;fontSize=16;" parent="RZGnPOqAcmDjlP5rCY_A-322" vertex="1">
          <mxGeometry x="95" y="291.5" width="80" height="70" as="geometry" />
        </mxCell>
        <mxCell id="RZGnPOqAcmDjlP5rCY_A-340" style="edgeStyle=none;curved=1;rounded=0;orthogonalLoop=1;jettySize=auto;html=1;fontSize=12;startSize=8;endSize=8;" parent="RZGnPOqAcmDjlP5rCY_A-322" source="RZGnPOqAcmDjlP5rCY_A-341" target="RZGnPOqAcmDjlP5rCY_A-333" edge="1">
          <mxGeometry relative="1" as="geometry" />
        </mxCell>
        <mxCell id="RZGnPOqAcmDjlP5rCY_A-341" value="&lt;font&gt;Display 2&lt;/font&gt;" style="shape=ext;double=1;rounded=1;whiteSpace=wrap;html=1;fontSize=16;" parent="RZGnPOqAcmDjlP5rCY_A-322" vertex="1">
          <mxGeometry x="177.5" y="291.5" width="80" height="70" as="geometry" />
        </mxCell>
        <mxCell id="RZGnPOqAcmDjlP5rCY_A-342" style="edgeStyle=none;curved=1;rounded=0;orthogonalLoop=1;jettySize=auto;html=1;exitX=0.5;exitY=0;exitDx=0;exitDy=0;fontSize=12;startSize=8;endSize=8;" parent="RZGnPOqAcmDjlP5rCY_A-322" source="RZGnPOqAcmDjlP5rCY_A-343" target="RZGnPOqAcmDjlP5rCY_A-335" edge="1">
          <mxGeometry relative="1" as="geometry" />
        </mxCell>
        <mxCell id="RZGnPOqAcmDjlP5rCY_A-343" value="&lt;font&gt;Antena 1&lt;/font&gt;" style="shape=ext;double=1;rounded=1;whiteSpace=wrap;html=1;fontSize=16;" parent="RZGnPOqAcmDjlP5rCY_A-322" vertex="1">
          <mxGeometry x="257.5" y="291.5" width="80" height="70" as="geometry" />
        </mxCell>
        <mxCell id="RZGnPOqAcmDjlP5rCY_A-344" style="edgeStyle=none;curved=1;rounded=0;orthogonalLoop=1;jettySize=auto;html=1;entryX=0.5;entryY=1;entryDx=0;entryDy=0;fontSize=12;startSize=8;endSize=8;" parent="RZGnPOqAcmDjlP5rCY_A-322" source="RZGnPOqAcmDjlP5rCY_A-345" target="RZGnPOqAcmDjlP5rCY_A-337" edge="1">
          <mxGeometry relative="1" as="geometry" />
        </mxCell>
        <mxCell id="RZGnPOqAcmDjlP5rCY_A-345" value="&lt;font&gt;Antena 2&lt;/font&gt;" style="shape=ext;double=1;rounded=1;whiteSpace=wrap;html=1;fontSize=16;" parent="RZGnPOqAcmDjlP5rCY_A-322" vertex="1">
          <mxGeometry x="337.5" y="291.5" width="80" height="70" as="geometry" />
        </mxCell>
        <mxCell id="RZGnPOqAcmDjlP5rCY_A-346" style="edgeStyle=none;curved=1;rounded=0;orthogonalLoop=1;jettySize=auto;html=1;exitX=0;exitY=0.5;exitDx=0;exitDy=0;fontSize=12;startSize=8;endSize=8;entryX=1;entryY=0.5;entryDx=0;entryDy=0;" parent="RZGnPOqAcmDjlP5rCY_A-322" source="RZGnPOqAcmDjlP5rCY_A-347" target="RZGnPOqAcmDjlP5rCY_A-328" edge="1">
          <mxGeometry relative="1" as="geometry">
            <mxPoint x="405" y="81.5" as="targetPoint" />
          </mxGeometry>
        </mxCell>
        <mxCell id="RZGnPOqAcmDjlP5rCY_A-347" value="&lt;font&gt;Sensores&lt;/font&gt;" style="shape=ext;double=1;rounded=1;whiteSpace=wrap;html=1;fontSize=16;" parent="RZGnPOqAcmDjlP5rCY_A-322" vertex="1">
          <mxGeometry x="455" y="28.25" width="80" height="70" as="geometry" />
        </mxCell>
        <mxCell id="RZGnPOqAcmDjlP5rCY_A-348" style="edgeStyle=none;curved=1;rounded=0;orthogonalLoop=1;jettySize=auto;html=1;exitX=1;exitY=0.25;exitDx=0;exitDy=0;fontSize=12;startSize=8;endSize=8;" parent="RZGnPOqAcmDjlP5rCY_A-322" source="RZGnPOqAcmDjlP5rCY_A-328" target="RZGnPOqAcmDjlP5rCY_A-328" edge="1">
          <mxGeometry relative="1" as="geometry" />
        </mxCell>
        <mxCell id="RZGnPOqAcmDjlP5rCY_A-349" style="edgeStyle=none;curved=1;rounded=0;orthogonalLoop=1;jettySize=auto;html=1;entryX=1;entryY=0.75;entryDx=0;entryDy=0;fontSize=12;startSize=8;endSize=8;" parent="RZGnPOqAcmDjlP5rCY_A-322" source="RZGnPOqAcmDjlP5rCY_A-350" target="RZGnPOqAcmDjlP5rCY_A-328" edge="1">
          <mxGeometry relative="1" as="geometry" />
        </mxCell>
        <mxCell id="RZGnPOqAcmDjlP5rCY_A-350" value="&lt;font&gt;Cancelas&lt;/font&gt;" style="shape=ext;double=1;rounded=1;whiteSpace=wrap;html=1;fontSize=16;" parent="RZGnPOqAcmDjlP5rCY_A-322" vertex="1">
          <mxGeometry x="455" y="114.75" width="80" height="70" as="geometry" />
        </mxCell>
        <mxCell id="RZGnPOqAcmDjlP5rCY_A-351" style="edgeStyle=none;curved=1;rounded=0;orthogonalLoop=1;jettySize=auto;html=1;fontSize=12;fontColor=#0000CC;strokeWidth=4;strokeColor=#0000CC;endArrow=baseDash;endFill=0;startArrow=baseDash;startFill=0;exitX=1;exitY=0.5;exitDx=0;exitDy=0;" parent="RZGnPOqAcmDjlP5rCY_A-317" source="RZGnPOqAcmDjlP5rCY_A-320" target="RZGnPOqAcmDjlP5rCY_A-326" edge="1">
          <mxGeometry relative="1" as="geometry">
            <mxPoint x="74.99999999999955" y="250.38461538461547" as="sourcePoint" />
          </mxGeometry>
        </mxCell>
        <mxCell id="RZGnPOqAcmDjlP5rCY_A-352" style="rounded=0;orthogonalLoop=1;jettySize=auto;html=1;fontSize=12;strokeColor=#0000CC;strokeWidth=4;endArrow=baseDash;endFill=0;startArrow=baseDash;startFill=0;exitX=1;exitY=0.5;exitDx=0;exitDy=0;" parent="RZGnPOqAcmDjlP5rCY_A-317" source="RZGnPOqAcmDjlP5rCY_A-321" target="RZGnPOqAcmDjlP5rCY_A-327" edge="1">
          <mxGeometry relative="1" as="geometry">
            <mxPoint x="119.99999999999955" y="369.0540540540542" as="sourcePoint" />
          </mxGeometry>
        </mxCell>
        <mxCell id="RZGnPOqAcmDjlP5rCY_A-318" style="edgeStyle=none;curved=1;rounded=0;orthogonalLoop=1;jettySize=auto;html=1;fontSize=12;startSize=8;endSize=8;strokeWidth=4;strokeColor=#0000CC;endArrow=baseDash;endFill=0;startArrow=baseDash;startFill=0;" parent="RZGnPOqAcmDjlP5rCY_A-317" target="RZGnPOqAcmDjlP5rCY_A-324" edge="1">
          <mxGeometry relative="1" as="geometry">
            <mxPoint x="210" as="sourcePoint" />
          </mxGeometry>
        </mxCell>
        <mxCell id="RZGnPOqAcmDjlP5rCY_A-319" value="Rede Lan&lt;br style=&quot;border-color: var(--border-color);&quot;&gt;Comunicação: TCP/IP" style="edgeLabel;html=1;align=center;verticalAlign=middle;resizable=0;points=[];fontSize=16;" parent="RZGnPOqAcmDjlP5rCY_A-318" vertex="1" connectable="0">
          <mxGeometry x="-0.1428" y="-3" relative="1" as="geometry">
            <mxPoint as="offset" />
          </mxGeometry>
        </mxCell>
        <mxCell id="RZGnPOqAcmDjlP5rCY_A-353" value="" style="group" parent="1" vertex="1" connectable="0">
          <mxGeometry x="2700" y="638.5" width="700" height="501.5" as="geometry" />
        </mxCell>
        <mxCell id="RZGnPOqAcmDjlP5rCY_A-356" value="&lt;font&gt;Câmera&lt;/font&gt;&lt;br&gt;&lt;font&gt;ip:porta&lt;/font&gt;" style="shape=ext;double=1;rounded=1;whiteSpace=wrap;html=1;fontSize=16;fillColor=#dae8fc;strokeColor=#6c8ebf;" parent="RZGnPOqAcmDjlP5rCY_A-353" vertex="1">
          <mxGeometry y="260" width="120" height="50" as="geometry" />
        </mxCell>
        <mxCell id="RZGnPOqAcmDjlP5rCY_A-357" value="&lt;font&gt;Balança&lt;/font&gt;&lt;br&gt;&lt;font&gt;ip:porta&lt;/font&gt;" style="shape=ext;double=1;rounded=1;whiteSpace=wrap;html=1;fontSize=16;fillColor=#dae8fc;strokeColor=#6c8ebf;" parent="RZGnPOqAcmDjlP5rCY_A-353" vertex="1">
          <mxGeometry y="331.5" width="120" height="50" as="geometry" />
        </mxCell>
        <mxCell id="RZGnPOqAcmDjlP5rCY_A-358" value="" style="group" parent="RZGnPOqAcmDjlP5rCY_A-353" vertex="1" connectable="0">
          <mxGeometry x="165" y="140" width="535" height="361.5" as="geometry" />
        </mxCell>
        <mxCell id="RZGnPOqAcmDjlP5rCY_A-359" value="MCA KMM - Balança 3" style="rounded=1;whiteSpace=wrap;html=1;absoluteArcSize=1;arcSize=14;strokeWidth=2;fontSize=16;glass=0;shadow=1;gradientColor=none;labelBackgroundColor=none;labelPosition=center;verticalLabelPosition=top;align=center;verticalAlign=bottom;" parent="RZGnPOqAcmDjlP5rCY_A-358" vertex="1">
          <mxGeometry width="435" height="261.5" as="geometry" />
        </mxCell>
        <mxCell id="RZGnPOqAcmDjlP5rCY_A-360" value="" style="sketch=0;pointerEvents=1;shadow=0;dashed=0;html=1;strokeColor=none;fillColor=#434445;aspect=fixed;labelPosition=center;verticalLabelPosition=bottom;verticalAlign=top;align=center;outlineConnect=0;shape=mxgraph.vvd.ethernet_port;fontSize=16;" parent="RZGnPOqAcmDjlP5rCY_A-358" vertex="1">
          <mxGeometry x="20" y="20" width="50" height="50" as="geometry" />
        </mxCell>
        <mxCell id="RZGnPOqAcmDjlP5rCY_A-361" value="" style="sketch=0;pointerEvents=1;shadow=0;dashed=0;html=1;strokeColor=none;fillColor=#434445;aspect=fixed;labelPosition=center;verticalLabelPosition=bottom;verticalAlign=top;align=center;outlineConnect=0;shape=mxgraph.vvd.ethernet_port;fontSize=16;" parent="RZGnPOqAcmDjlP5rCY_A-358" vertex="1">
          <mxGeometry x="20" y="70" width="50" height="50" as="geometry" />
        </mxCell>
        <mxCell id="RZGnPOqAcmDjlP5rCY_A-362" value="" style="sketch=0;pointerEvents=1;shadow=0;dashed=0;html=1;strokeColor=none;fillColor=#434445;aspect=fixed;labelPosition=center;verticalLabelPosition=bottom;verticalAlign=top;align=center;outlineConnect=0;shape=mxgraph.vvd.ethernet_port;fontSize=16;" parent="RZGnPOqAcmDjlP5rCY_A-358" vertex="1">
          <mxGeometry x="20" y="120" width="50" height="50" as="geometry" />
        </mxCell>
        <mxCell id="RZGnPOqAcmDjlP5rCY_A-363" value="" style="sketch=0;pointerEvents=1;shadow=0;dashed=0;html=1;strokeColor=none;fillColor=#434445;aspect=fixed;labelPosition=center;verticalLabelPosition=bottom;verticalAlign=top;align=center;outlineConnect=0;shape=mxgraph.vvd.ethernet_port;fontSize=16;" parent="RZGnPOqAcmDjlP5rCY_A-358" vertex="1">
          <mxGeometry x="20" y="170" width="50" height="50" as="geometry" />
        </mxCell>
        <mxCell id="RZGnPOqAcmDjlP5rCY_A-364" value="CLP&lt;br&gt;&lt;font&gt;ip:porta&lt;/font&gt;" style="shape=ext;double=1;rounded=1;whiteSpace=wrap;html=1;fontSize=16;fillColor=#dae8fc;strokeColor=#6c8ebf;" parent="RZGnPOqAcmDjlP5rCY_A-358" vertex="1">
          <mxGeometry x="95" y="70" width="310" height="50" as="geometry" />
        </mxCell>
        <mxCell id="RZGnPOqAcmDjlP5rCY_A-365" style="edgeStyle=none;curved=1;rounded=0;orthogonalLoop=1;jettySize=auto;html=1;fontSize=12;startSize=8;endSize=8;endArrow=baseDash;endFill=0;startArrow=baseDash;startFill=0;strokeWidth=4;strokeColor=#0000CC;exitX=0;exitY=0.5;exitDx=0;exitDy=0;" parent="RZGnPOqAcmDjlP5rCY_A-358" source="RZGnPOqAcmDjlP5rCY_A-364" target="RZGnPOqAcmDjlP5rCY_A-361" edge="1">
          <mxGeometry relative="1" as="geometry" />
        </mxCell>
        <mxCell id="RZGnPOqAcmDjlP5rCY_A-366" style="edgeStyle=none;curved=1;rounded=0;orthogonalLoop=1;jettySize=auto;html=1;exitX=0.5;exitY=0;exitDx=0;exitDy=0;fontSize=12;startSize=8;endSize=8;" parent="RZGnPOqAcmDjlP5rCY_A-358" source="RZGnPOqAcmDjlP5rCY_A-367" target="RZGnPOqAcmDjlP5rCY_A-364" edge="1">
          <mxGeometry relative="1" as="geometry" />
        </mxCell>
        <mxCell id="RZGnPOqAcmDjlP5rCY_A-367" value="&lt;font&gt;Módulo Conversor Serial&lt;/font&gt;&lt;br&gt;" style="shape=ext;double=1;rounded=1;whiteSpace=wrap;html=1;fontSize=16;" parent="RZGnPOqAcmDjlP5rCY_A-358" vertex="1">
          <mxGeometry x="95" y="156.5" width="80" height="70" as="geometry" />
        </mxCell>
        <mxCell id="RZGnPOqAcmDjlP5rCY_A-368" style="edgeStyle=none;curved=1;rounded=0;orthogonalLoop=1;jettySize=auto;html=1;exitX=0.5;exitY=0;exitDx=0;exitDy=0;fontSize=12;startSize=8;endSize=8;" parent="RZGnPOqAcmDjlP5rCY_A-358" source="RZGnPOqAcmDjlP5rCY_A-369" target="RZGnPOqAcmDjlP5rCY_A-364" edge="1">
          <mxGeometry relative="1" as="geometry" />
        </mxCell>
        <mxCell id="RZGnPOqAcmDjlP5rCY_A-369" value="&lt;font&gt;Módulo Conversor Serial&lt;/font&gt;&lt;br&gt;" style="shape=ext;double=1;rounded=1;whiteSpace=wrap;html=1;fontSize=16;" parent="RZGnPOqAcmDjlP5rCY_A-358" vertex="1">
          <mxGeometry x="175" y="156.5" width="80" height="70" as="geometry" />
        </mxCell>
        <mxCell id="RZGnPOqAcmDjlP5rCY_A-370" style="edgeStyle=none;curved=1;rounded=0;orthogonalLoop=1;jettySize=auto;html=1;exitX=0.5;exitY=0;exitDx=0;exitDy=0;fontSize=12;startSize=8;endSize=8;" parent="RZGnPOqAcmDjlP5rCY_A-358" source="RZGnPOqAcmDjlP5rCY_A-371" target="RZGnPOqAcmDjlP5rCY_A-364" edge="1">
          <mxGeometry relative="1" as="geometry" />
        </mxCell>
        <mxCell id="RZGnPOqAcmDjlP5rCY_A-371" value="&lt;font&gt;Módulo Conversor Serial&lt;/font&gt;&lt;br&gt;" style="shape=ext;double=1;rounded=1;whiteSpace=wrap;html=1;fontSize=16;" parent="RZGnPOqAcmDjlP5rCY_A-358" vertex="1">
          <mxGeometry x="255" y="156.5" width="80" height="70" as="geometry" />
        </mxCell>
        <mxCell id="RZGnPOqAcmDjlP5rCY_A-372" style="edgeStyle=none;curved=1;rounded=0;orthogonalLoop=1;jettySize=auto;html=1;exitX=0.5;exitY=0;exitDx=0;exitDy=0;fontSize=12;startSize=8;endSize=8;" parent="RZGnPOqAcmDjlP5rCY_A-358" source="RZGnPOqAcmDjlP5rCY_A-373" target="RZGnPOqAcmDjlP5rCY_A-364" edge="1">
          <mxGeometry relative="1" as="geometry" />
        </mxCell>
        <mxCell id="RZGnPOqAcmDjlP5rCY_A-373" value="&lt;font&gt;Módulo Conversor Serial&lt;/font&gt;&lt;br&gt;" style="shape=ext;double=1;rounded=1;whiteSpace=wrap;html=1;fontSize=16;" parent="RZGnPOqAcmDjlP5rCY_A-358" vertex="1">
          <mxGeometry x="335" y="156.5" width="80" height="70" as="geometry" />
        </mxCell>
        <mxCell id="RZGnPOqAcmDjlP5rCY_A-374" style="edgeStyle=none;curved=1;rounded=0;orthogonalLoop=1;jettySize=auto;html=1;exitX=0.5;exitY=0;exitDx=0;exitDy=0;entryX=0.5;entryY=1;entryDx=0;entryDy=0;fontSize=12;startSize=8;endSize=8;" parent="RZGnPOqAcmDjlP5rCY_A-358" source="RZGnPOqAcmDjlP5rCY_A-375" target="RZGnPOqAcmDjlP5rCY_A-367" edge="1">
          <mxGeometry relative="1" as="geometry" />
        </mxCell>
        <mxCell id="RZGnPOqAcmDjlP5rCY_A-375" value="&lt;font&gt;Display 1&lt;/font&gt;" style="shape=ext;double=1;rounded=1;whiteSpace=wrap;html=1;fontSize=16;" parent="RZGnPOqAcmDjlP5rCY_A-358" vertex="1">
          <mxGeometry x="95" y="291.5" width="80" height="70" as="geometry" />
        </mxCell>
        <mxCell id="RZGnPOqAcmDjlP5rCY_A-376" style="edgeStyle=none;curved=1;rounded=0;orthogonalLoop=1;jettySize=auto;html=1;fontSize=12;startSize=8;endSize=8;" parent="RZGnPOqAcmDjlP5rCY_A-358" source="RZGnPOqAcmDjlP5rCY_A-377" target="RZGnPOqAcmDjlP5rCY_A-369" edge="1">
          <mxGeometry relative="1" as="geometry" />
        </mxCell>
        <mxCell id="RZGnPOqAcmDjlP5rCY_A-377" value="&lt;font&gt;Display 2&lt;/font&gt;" style="shape=ext;double=1;rounded=1;whiteSpace=wrap;html=1;fontSize=16;" parent="RZGnPOqAcmDjlP5rCY_A-358" vertex="1">
          <mxGeometry x="177.5" y="291.5" width="80" height="70" as="geometry" />
        </mxCell>
        <mxCell id="RZGnPOqAcmDjlP5rCY_A-378" style="edgeStyle=none;curved=1;rounded=0;orthogonalLoop=1;jettySize=auto;html=1;exitX=0.5;exitY=0;exitDx=0;exitDy=0;fontSize=12;startSize=8;endSize=8;" parent="RZGnPOqAcmDjlP5rCY_A-358" source="RZGnPOqAcmDjlP5rCY_A-379" target="RZGnPOqAcmDjlP5rCY_A-371" edge="1">
          <mxGeometry relative="1" as="geometry" />
        </mxCell>
        <mxCell id="RZGnPOqAcmDjlP5rCY_A-379" value="&lt;font&gt;Antena 1&lt;/font&gt;" style="shape=ext;double=1;rounded=1;whiteSpace=wrap;html=1;fontSize=16;" parent="RZGnPOqAcmDjlP5rCY_A-358" vertex="1">
          <mxGeometry x="257.5" y="291.5" width="80" height="70" as="geometry" />
        </mxCell>
        <mxCell id="RZGnPOqAcmDjlP5rCY_A-380" style="edgeStyle=none;curved=1;rounded=0;orthogonalLoop=1;jettySize=auto;html=1;entryX=0.5;entryY=1;entryDx=0;entryDy=0;fontSize=12;startSize=8;endSize=8;" parent="RZGnPOqAcmDjlP5rCY_A-358" source="RZGnPOqAcmDjlP5rCY_A-381" target="RZGnPOqAcmDjlP5rCY_A-373" edge="1">
          <mxGeometry relative="1" as="geometry" />
        </mxCell>
        <mxCell id="RZGnPOqAcmDjlP5rCY_A-381" value="&lt;font&gt;Antena 2&lt;/font&gt;" style="shape=ext;double=1;rounded=1;whiteSpace=wrap;html=1;fontSize=16;" parent="RZGnPOqAcmDjlP5rCY_A-358" vertex="1">
          <mxGeometry x="337.5" y="291.5" width="80" height="70" as="geometry" />
        </mxCell>
        <mxCell id="RZGnPOqAcmDjlP5rCY_A-382" style="edgeStyle=none;curved=1;rounded=0;orthogonalLoop=1;jettySize=auto;html=1;exitX=0;exitY=0.5;exitDx=0;exitDy=0;fontSize=12;startSize=8;endSize=8;entryX=1;entryY=0.5;entryDx=0;entryDy=0;" parent="RZGnPOqAcmDjlP5rCY_A-358" source="RZGnPOqAcmDjlP5rCY_A-383" target="RZGnPOqAcmDjlP5rCY_A-364" edge="1">
          <mxGeometry relative="1" as="geometry">
            <mxPoint x="405" y="81.5" as="targetPoint" />
          </mxGeometry>
        </mxCell>
        <mxCell id="RZGnPOqAcmDjlP5rCY_A-383" value="&lt;font&gt;Sensores&lt;/font&gt;" style="shape=ext;double=1;rounded=1;whiteSpace=wrap;html=1;fontSize=16;" parent="RZGnPOqAcmDjlP5rCY_A-358" vertex="1">
          <mxGeometry x="455" y="28.25" width="80" height="70" as="geometry" />
        </mxCell>
        <mxCell id="RZGnPOqAcmDjlP5rCY_A-384" style="edgeStyle=none;curved=1;rounded=0;orthogonalLoop=1;jettySize=auto;html=1;exitX=1;exitY=0.25;exitDx=0;exitDy=0;fontSize=12;startSize=8;endSize=8;" parent="RZGnPOqAcmDjlP5rCY_A-358" source="RZGnPOqAcmDjlP5rCY_A-364" target="RZGnPOqAcmDjlP5rCY_A-364" edge="1">
          <mxGeometry relative="1" as="geometry" />
        </mxCell>
        <mxCell id="RZGnPOqAcmDjlP5rCY_A-385" style="edgeStyle=none;curved=1;rounded=0;orthogonalLoop=1;jettySize=auto;html=1;entryX=1;entryY=0.75;entryDx=0;entryDy=0;fontSize=12;startSize=8;endSize=8;" parent="RZGnPOqAcmDjlP5rCY_A-358" source="RZGnPOqAcmDjlP5rCY_A-386" target="RZGnPOqAcmDjlP5rCY_A-364" edge="1">
          <mxGeometry relative="1" as="geometry" />
        </mxCell>
        <mxCell id="RZGnPOqAcmDjlP5rCY_A-386" value="&lt;font&gt;Cancelas&lt;/font&gt;" style="shape=ext;double=1;rounded=1;whiteSpace=wrap;html=1;fontSize=16;" parent="RZGnPOqAcmDjlP5rCY_A-358" vertex="1">
          <mxGeometry x="455" y="114.75" width="80" height="70" as="geometry" />
        </mxCell>
        <mxCell id="RZGnPOqAcmDjlP5rCY_A-387" style="edgeStyle=none;curved=1;rounded=0;orthogonalLoop=1;jettySize=auto;html=1;fontSize=12;fontColor=#0000CC;strokeWidth=4;strokeColor=#0000CC;endArrow=baseDash;endFill=0;startArrow=baseDash;startFill=0;exitX=1;exitY=0.5;exitDx=0;exitDy=0;" parent="RZGnPOqAcmDjlP5rCY_A-353" source="RZGnPOqAcmDjlP5rCY_A-356" target="RZGnPOqAcmDjlP5rCY_A-362" edge="1">
          <mxGeometry relative="1" as="geometry">
            <mxPoint x="74.99999999999955" y="250.38461538461547" as="sourcePoint" />
          </mxGeometry>
        </mxCell>
        <mxCell id="RZGnPOqAcmDjlP5rCY_A-388" style="rounded=0;orthogonalLoop=1;jettySize=auto;html=1;fontSize=12;strokeColor=#0000CC;strokeWidth=4;endArrow=baseDash;endFill=0;startArrow=baseDash;startFill=0;exitX=1;exitY=0.5;exitDx=0;exitDy=0;" parent="RZGnPOqAcmDjlP5rCY_A-353" source="RZGnPOqAcmDjlP5rCY_A-357" target="RZGnPOqAcmDjlP5rCY_A-363" edge="1">
          <mxGeometry relative="1" as="geometry">
            <mxPoint x="119.99999999999955" y="369.0540540540542" as="sourcePoint" />
          </mxGeometry>
        </mxCell>
        <mxCell id="RZGnPOqAcmDjlP5rCY_A-354" style="edgeStyle=none;curved=1;rounded=0;orthogonalLoop=1;jettySize=auto;html=1;fontSize=12;startSize=8;endSize=8;strokeWidth=4;strokeColor=#0000CC;endArrow=baseDash;endFill=0;startArrow=baseDash;startFill=0;" parent="RZGnPOqAcmDjlP5rCY_A-353" target="RZGnPOqAcmDjlP5rCY_A-360" edge="1">
          <mxGeometry relative="1" as="geometry">
            <mxPoint x="210" as="sourcePoint" />
          </mxGeometry>
        </mxCell>
        <mxCell id="RZGnPOqAcmDjlP5rCY_A-355" value="Rede Lan&lt;br style=&quot;border-color: var(--border-color);&quot;&gt;Comunicação: TCP/IP" style="edgeLabel;html=1;align=center;verticalAlign=middle;resizable=0;points=[];fontSize=16;" parent="RZGnPOqAcmDjlP5rCY_A-354" vertex="1" connectable="0">
          <mxGeometry x="-0.1428" y="-3" relative="1" as="geometry">
            <mxPoint as="offset" />
          </mxGeometry>
        </mxCell>
        <mxCell id="RZGnPOqAcmDjlP5rCY_A-484" value="" style="group" parent="1" vertex="1" connectable="0">
          <mxGeometry x="3420" y="638.5" width="570" height="501.5" as="geometry" />
        </mxCell>
        <mxCell id="RZGnPOqAcmDjlP5rCY_A-425" value="&lt;font&gt;Câmera&lt;/font&gt;&lt;br&gt;&lt;font&gt;ip:porta&lt;/font&gt;" style="shape=ext;double=1;rounded=1;whiteSpace=wrap;html=1;fontSize=16;fillColor=#dae8fc;strokeColor=#6c8ebf;" parent="RZGnPOqAcmDjlP5rCY_A-484" vertex="1">
          <mxGeometry y="260" width="120" height="50" as="geometry" />
        </mxCell>
        <mxCell id="RZGnPOqAcmDjlP5rCY_A-426" value="&lt;font&gt;Balança&lt;/font&gt;&lt;br&gt;&lt;font&gt;ip:porta&lt;/font&gt;" style="shape=ext;double=1;rounded=1;whiteSpace=wrap;html=1;fontSize=16;fillColor=#dae8fc;strokeColor=#6c8ebf;" parent="RZGnPOqAcmDjlP5rCY_A-484" vertex="1">
          <mxGeometry y="331.5" width="120" height="50" as="geometry" />
        </mxCell>
        <mxCell id="RZGnPOqAcmDjlP5rCY_A-428" value="MCA KMM - Balança Ferroviária 1" style="rounded=1;whiteSpace=wrap;html=1;absoluteArcSize=1;arcSize=14;strokeWidth=2;fontSize=16;glass=0;shadow=1;gradientColor=none;labelBackgroundColor=none;labelPosition=center;verticalLabelPosition=top;align=right;verticalAlign=bottom;" parent="RZGnPOqAcmDjlP5rCY_A-484" vertex="1">
          <mxGeometry x="165" y="140" width="310" height="261.5" as="geometry" />
        </mxCell>
        <mxCell id="RZGnPOqAcmDjlP5rCY_A-429" value="" style="sketch=0;pointerEvents=1;shadow=0;dashed=0;html=1;strokeColor=none;fillColor=#434445;aspect=fixed;labelPosition=center;verticalLabelPosition=bottom;verticalAlign=top;align=center;outlineConnect=0;shape=mxgraph.vvd.ethernet_port;fontSize=16;" parent="RZGnPOqAcmDjlP5rCY_A-484" vertex="1">
          <mxGeometry x="185" y="160" width="50" height="50" as="geometry" />
        </mxCell>
        <mxCell id="RZGnPOqAcmDjlP5rCY_A-430" value="" style="sketch=0;pointerEvents=1;shadow=0;dashed=0;html=1;strokeColor=none;fillColor=#434445;aspect=fixed;labelPosition=center;verticalLabelPosition=bottom;verticalAlign=top;align=center;outlineConnect=0;shape=mxgraph.vvd.ethernet_port;fontSize=16;" parent="RZGnPOqAcmDjlP5rCY_A-484" vertex="1">
          <mxGeometry x="185" y="210" width="50" height="50" as="geometry" />
        </mxCell>
        <mxCell id="RZGnPOqAcmDjlP5rCY_A-431" value="" style="sketch=0;pointerEvents=1;shadow=0;dashed=0;html=1;strokeColor=none;fillColor=#434445;aspect=fixed;labelPosition=center;verticalLabelPosition=bottom;verticalAlign=top;align=center;outlineConnect=0;shape=mxgraph.vvd.ethernet_port;fontSize=16;" parent="RZGnPOqAcmDjlP5rCY_A-484" vertex="1">
          <mxGeometry x="185" y="260" width="50" height="50" as="geometry" />
        </mxCell>
        <mxCell id="RZGnPOqAcmDjlP5rCY_A-432" value="" style="sketch=0;pointerEvents=1;shadow=0;dashed=0;html=1;strokeColor=none;fillColor=#434445;aspect=fixed;labelPosition=center;verticalLabelPosition=bottom;verticalAlign=top;align=center;outlineConnect=0;shape=mxgraph.vvd.ethernet_port;fontSize=16;" parent="RZGnPOqAcmDjlP5rCY_A-484" vertex="1">
          <mxGeometry x="185" y="310" width="50" height="50" as="geometry" />
        </mxCell>
        <mxCell id="RZGnPOqAcmDjlP5rCY_A-433" value="CLP&lt;br&gt;&lt;font&gt;ip:porta&lt;/font&gt;" style="shape=ext;double=1;rounded=1;whiteSpace=wrap;html=1;fontSize=16;fillColor=#dae8fc;strokeColor=#6c8ebf;" parent="RZGnPOqAcmDjlP5rCY_A-484" vertex="1">
          <mxGeometry x="260" y="210" width="155" height="50" as="geometry" />
        </mxCell>
        <mxCell id="RZGnPOqAcmDjlP5rCY_A-434" style="edgeStyle=none;curved=1;rounded=0;orthogonalLoop=1;jettySize=auto;html=1;fontSize=12;startSize=8;endSize=8;endArrow=baseDash;endFill=0;startArrow=baseDash;startFill=0;strokeWidth=4;strokeColor=#0000CC;exitX=0;exitY=0.5;exitDx=0;exitDy=0;" parent="RZGnPOqAcmDjlP5rCY_A-484" source="RZGnPOqAcmDjlP5rCY_A-433" target="RZGnPOqAcmDjlP5rCY_A-430" edge="1">
          <mxGeometry relative="1" as="geometry" />
        </mxCell>
        <mxCell id="RZGnPOqAcmDjlP5rCY_A-435" style="edgeStyle=none;curved=1;rounded=0;orthogonalLoop=1;jettySize=auto;html=1;exitX=0.5;exitY=0;exitDx=0;exitDy=0;fontSize=12;startSize=8;endSize=8;" parent="RZGnPOqAcmDjlP5rCY_A-484" source="RZGnPOqAcmDjlP5rCY_A-436" target="RZGnPOqAcmDjlP5rCY_A-433" edge="1">
          <mxGeometry relative="1" as="geometry" />
        </mxCell>
        <mxCell id="RZGnPOqAcmDjlP5rCY_A-436" value="&lt;font&gt;Módulo Conversor Serial&lt;/font&gt;&lt;br&gt;" style="shape=ext;double=1;rounded=1;whiteSpace=wrap;html=1;fontSize=16;" parent="RZGnPOqAcmDjlP5rCY_A-484" vertex="1">
          <mxGeometry x="260" y="296.5" width="80" height="70" as="geometry" />
        </mxCell>
        <mxCell id="RZGnPOqAcmDjlP5rCY_A-437" style="edgeStyle=none;curved=1;rounded=0;orthogonalLoop=1;jettySize=auto;html=1;exitX=0.5;exitY=0;exitDx=0;exitDy=0;fontSize=12;startSize=8;endSize=8;" parent="RZGnPOqAcmDjlP5rCY_A-484" source="RZGnPOqAcmDjlP5rCY_A-438" target="RZGnPOqAcmDjlP5rCY_A-433" edge="1">
          <mxGeometry relative="1" as="geometry" />
        </mxCell>
        <mxCell id="RZGnPOqAcmDjlP5rCY_A-438" value="&lt;font&gt;Módulo Conversor Serial&lt;/font&gt;&lt;br&gt;" style="shape=ext;double=1;rounded=1;whiteSpace=wrap;html=1;fontSize=16;" parent="RZGnPOqAcmDjlP5rCY_A-484" vertex="1">
          <mxGeometry x="340" y="296.5" width="80" height="70" as="geometry" />
        </mxCell>
        <mxCell id="RZGnPOqAcmDjlP5rCY_A-443" style="edgeStyle=none;curved=1;rounded=0;orthogonalLoop=1;jettySize=auto;html=1;exitX=0.5;exitY=0;exitDx=0;exitDy=0;entryX=0.5;entryY=1;entryDx=0;entryDy=0;fontSize=12;startSize=8;endSize=8;" parent="RZGnPOqAcmDjlP5rCY_A-484" source="RZGnPOqAcmDjlP5rCY_A-444" target="RZGnPOqAcmDjlP5rCY_A-436" edge="1">
          <mxGeometry relative="1" as="geometry" />
        </mxCell>
        <mxCell id="RZGnPOqAcmDjlP5rCY_A-444" value="&lt;font&gt;Display 1&lt;/font&gt;" style="shape=ext;double=1;rounded=1;whiteSpace=wrap;html=1;fontSize=16;" parent="RZGnPOqAcmDjlP5rCY_A-484" vertex="1">
          <mxGeometry x="260" y="431.5" width="80" height="70" as="geometry" />
        </mxCell>
        <mxCell id="RZGnPOqAcmDjlP5rCY_A-445" style="edgeStyle=none;curved=1;rounded=0;orthogonalLoop=1;jettySize=auto;html=1;fontSize=12;startSize=8;endSize=8;" parent="RZGnPOqAcmDjlP5rCY_A-484" source="RZGnPOqAcmDjlP5rCY_A-446" target="RZGnPOqAcmDjlP5rCY_A-438" edge="1">
          <mxGeometry relative="1" as="geometry" />
        </mxCell>
        <mxCell id="RZGnPOqAcmDjlP5rCY_A-446" value="&lt;font&gt;Display 2&lt;/font&gt;" style="shape=ext;double=1;rounded=1;whiteSpace=wrap;html=1;fontSize=16;" parent="RZGnPOqAcmDjlP5rCY_A-484" vertex="1">
          <mxGeometry x="342.5" y="431.5" width="80" height="70" as="geometry" />
        </mxCell>
        <mxCell id="RZGnPOqAcmDjlP5rCY_A-451" style="edgeStyle=none;curved=1;rounded=0;orthogonalLoop=1;jettySize=auto;html=1;exitX=0;exitY=0.5;exitDx=0;exitDy=0;fontSize=12;startSize=8;endSize=8;entryX=1;entryY=0.5;entryDx=0;entryDy=0;" parent="RZGnPOqAcmDjlP5rCY_A-484" source="RZGnPOqAcmDjlP5rCY_A-452" target="RZGnPOqAcmDjlP5rCY_A-433" edge="1">
          <mxGeometry relative="1" as="geometry">
            <mxPoint x="570" y="221.5" as="targetPoint" />
          </mxGeometry>
        </mxCell>
        <mxCell id="RZGnPOqAcmDjlP5rCY_A-452" value="&lt;font&gt;Sensores&lt;/font&gt;" style="shape=ext;double=1;rounded=1;whiteSpace=wrap;html=1;fontSize=16;" parent="RZGnPOqAcmDjlP5rCY_A-484" vertex="1">
          <mxGeometry x="490" y="200" width="80" height="70" as="geometry" />
        </mxCell>
        <mxCell id="RZGnPOqAcmDjlP5rCY_A-453" style="edgeStyle=none;curved=1;rounded=0;orthogonalLoop=1;jettySize=auto;html=1;exitX=1;exitY=0.25;exitDx=0;exitDy=0;fontSize=12;startSize=8;endSize=8;" parent="RZGnPOqAcmDjlP5rCY_A-484" source="RZGnPOqAcmDjlP5rCY_A-433" target="RZGnPOqAcmDjlP5rCY_A-433" edge="1">
          <mxGeometry relative="1" as="geometry" />
        </mxCell>
        <mxCell id="RZGnPOqAcmDjlP5rCY_A-423" style="edgeStyle=none;curved=1;rounded=0;orthogonalLoop=1;jettySize=auto;html=1;fontSize=12;startSize=8;endSize=8;strokeWidth=4;strokeColor=#0000CC;endArrow=baseDash;endFill=0;startArrow=baseDash;startFill=0;" parent="RZGnPOqAcmDjlP5rCY_A-484" target="RZGnPOqAcmDjlP5rCY_A-429" edge="1">
          <mxGeometry relative="1" as="geometry">
            <mxPoint x="210" as="sourcePoint" />
          </mxGeometry>
        </mxCell>
        <mxCell id="RZGnPOqAcmDjlP5rCY_A-424" value="Rede Lan&lt;br style=&quot;border-color: var(--border-color);&quot;&gt;Comunicação: TCP/IP" style="edgeLabel;html=1;align=center;verticalAlign=middle;resizable=0;points=[];fontSize=16;" parent="RZGnPOqAcmDjlP5rCY_A-423" vertex="1" connectable="0">
          <mxGeometry x="-0.1428" y="-3" relative="1" as="geometry">
            <mxPoint x="-7" as="offset" />
          </mxGeometry>
        </mxCell>
        <mxCell id="RZGnPOqAcmDjlP5rCY_A-456" style="edgeStyle=none;curved=1;rounded=0;orthogonalLoop=1;jettySize=auto;html=1;fontSize=12;fontColor=#0000CC;strokeWidth=4;strokeColor=#0000CC;endArrow=baseDash;endFill=0;startArrow=baseDash;startFill=0;exitX=1;exitY=0.5;exitDx=0;exitDy=0;" parent="RZGnPOqAcmDjlP5rCY_A-484" source="RZGnPOqAcmDjlP5rCY_A-425" target="RZGnPOqAcmDjlP5rCY_A-431" edge="1">
          <mxGeometry relative="1" as="geometry">
            <mxPoint x="74.99999999999955" y="250.38461538461547" as="sourcePoint" />
          </mxGeometry>
        </mxCell>
        <mxCell id="RZGnPOqAcmDjlP5rCY_A-457" style="rounded=0;orthogonalLoop=1;jettySize=auto;html=1;fontSize=12;strokeColor=#0000CC;strokeWidth=4;endArrow=baseDash;endFill=0;startArrow=baseDash;startFill=0;exitX=1;exitY=0.5;exitDx=0;exitDy=0;" parent="RZGnPOqAcmDjlP5rCY_A-484" source="RZGnPOqAcmDjlP5rCY_A-426" target="RZGnPOqAcmDjlP5rCY_A-432" edge="1">
          <mxGeometry relative="1" as="geometry">
            <mxPoint x="119.99999999999955" y="369.0540540540542" as="sourcePoint" />
          </mxGeometry>
        </mxCell>
        <mxCell id="RZGnPOqAcmDjlP5rCY_A-485" value="" style="group" parent="1" vertex="1" connectable="0">
          <mxGeometry x="4030" y="638.5" width="570" height="501.5" as="geometry" />
        </mxCell>
        <mxCell id="RZGnPOqAcmDjlP5rCY_A-486" value="&lt;font&gt;Câmera&lt;/font&gt;&lt;br&gt;&lt;font&gt;ip:porta&lt;/font&gt;" style="shape=ext;double=1;rounded=1;whiteSpace=wrap;html=1;fontSize=16;fillColor=#dae8fc;strokeColor=#6c8ebf;" parent="RZGnPOqAcmDjlP5rCY_A-485" vertex="1">
          <mxGeometry y="260" width="120" height="50" as="geometry" />
        </mxCell>
        <mxCell id="RZGnPOqAcmDjlP5rCY_A-487" value="&lt;font&gt;Balança&lt;/font&gt;&lt;br&gt;&lt;font&gt;ip:porta&lt;/font&gt;" style="shape=ext;double=1;rounded=1;whiteSpace=wrap;html=1;fontSize=16;fillColor=#dae8fc;strokeColor=#6c8ebf;" parent="RZGnPOqAcmDjlP5rCY_A-485" vertex="1">
          <mxGeometry y="331.5" width="120" height="50" as="geometry" />
        </mxCell>
        <mxCell id="RZGnPOqAcmDjlP5rCY_A-490" value="MCA KMM - Balança Ferroviária 2" style="rounded=1;whiteSpace=wrap;html=1;absoluteArcSize=1;arcSize=14;strokeWidth=2;fontSize=16;glass=0;shadow=1;gradientColor=none;labelBackgroundColor=none;labelPosition=center;verticalLabelPosition=top;align=right;verticalAlign=bottom;" parent="RZGnPOqAcmDjlP5rCY_A-485" vertex="1">
          <mxGeometry x="165" y="140" width="310" height="261.5" as="geometry" />
        </mxCell>
        <mxCell id="RZGnPOqAcmDjlP5rCY_A-491" value="" style="sketch=0;pointerEvents=1;shadow=0;dashed=0;html=1;strokeColor=none;fillColor=#434445;aspect=fixed;labelPosition=center;verticalLabelPosition=bottom;verticalAlign=top;align=center;outlineConnect=0;shape=mxgraph.vvd.ethernet_port;fontSize=16;" parent="RZGnPOqAcmDjlP5rCY_A-485" vertex="1">
          <mxGeometry x="185" y="160" width="50" height="50" as="geometry" />
        </mxCell>
        <mxCell id="RZGnPOqAcmDjlP5rCY_A-492" value="" style="sketch=0;pointerEvents=1;shadow=0;dashed=0;html=1;strokeColor=none;fillColor=#434445;aspect=fixed;labelPosition=center;verticalLabelPosition=bottom;verticalAlign=top;align=center;outlineConnect=0;shape=mxgraph.vvd.ethernet_port;fontSize=16;" parent="RZGnPOqAcmDjlP5rCY_A-485" vertex="1">
          <mxGeometry x="185" y="210" width="50" height="50" as="geometry" />
        </mxCell>
        <mxCell id="RZGnPOqAcmDjlP5rCY_A-493" value="" style="sketch=0;pointerEvents=1;shadow=0;dashed=0;html=1;strokeColor=none;fillColor=#434445;aspect=fixed;labelPosition=center;verticalLabelPosition=bottom;verticalAlign=top;align=center;outlineConnect=0;shape=mxgraph.vvd.ethernet_port;fontSize=16;" parent="RZGnPOqAcmDjlP5rCY_A-485" vertex="1">
          <mxGeometry x="185" y="260" width="50" height="50" as="geometry" />
        </mxCell>
        <mxCell id="RZGnPOqAcmDjlP5rCY_A-494" value="" style="sketch=0;pointerEvents=1;shadow=0;dashed=0;html=1;strokeColor=none;fillColor=#434445;aspect=fixed;labelPosition=center;verticalLabelPosition=bottom;verticalAlign=top;align=center;outlineConnect=0;shape=mxgraph.vvd.ethernet_port;fontSize=16;" parent="RZGnPOqAcmDjlP5rCY_A-485" vertex="1">
          <mxGeometry x="185" y="310" width="50" height="50" as="geometry" />
        </mxCell>
        <mxCell id="RZGnPOqAcmDjlP5rCY_A-495" value="CLP&lt;br&gt;&lt;font&gt;ip:porta&lt;/font&gt;" style="shape=ext;double=1;rounded=1;whiteSpace=wrap;html=1;fontSize=16;fillColor=#dae8fc;strokeColor=#6c8ebf;" parent="RZGnPOqAcmDjlP5rCY_A-485" vertex="1">
          <mxGeometry x="260" y="210" width="155" height="50" as="geometry" />
        </mxCell>
        <mxCell id="RZGnPOqAcmDjlP5rCY_A-496" style="edgeStyle=none;curved=1;rounded=0;orthogonalLoop=1;jettySize=auto;html=1;fontSize=12;startSize=8;endSize=8;endArrow=baseDash;endFill=0;startArrow=baseDash;startFill=0;strokeWidth=4;strokeColor=#0000CC;exitX=0;exitY=0.5;exitDx=0;exitDy=0;" parent="RZGnPOqAcmDjlP5rCY_A-485" source="RZGnPOqAcmDjlP5rCY_A-495" target="RZGnPOqAcmDjlP5rCY_A-492" edge="1">
          <mxGeometry relative="1" as="geometry" />
        </mxCell>
        <mxCell id="RZGnPOqAcmDjlP5rCY_A-497" style="edgeStyle=none;curved=1;rounded=0;orthogonalLoop=1;jettySize=auto;html=1;exitX=0.5;exitY=0;exitDx=0;exitDy=0;fontSize=12;startSize=8;endSize=8;" parent="RZGnPOqAcmDjlP5rCY_A-485" source="RZGnPOqAcmDjlP5rCY_A-498" target="RZGnPOqAcmDjlP5rCY_A-495" edge="1">
          <mxGeometry relative="1" as="geometry" />
        </mxCell>
        <mxCell id="RZGnPOqAcmDjlP5rCY_A-498" value="&lt;font&gt;Módulo Conversor Serial&lt;/font&gt;&lt;br&gt;" style="shape=ext;double=1;rounded=1;whiteSpace=wrap;html=1;fontSize=16;" parent="RZGnPOqAcmDjlP5rCY_A-485" vertex="1">
          <mxGeometry x="260" y="296.5" width="80" height="70" as="geometry" />
        </mxCell>
        <mxCell id="RZGnPOqAcmDjlP5rCY_A-499" style="edgeStyle=none;curved=1;rounded=0;orthogonalLoop=1;jettySize=auto;html=1;exitX=0.5;exitY=0;exitDx=0;exitDy=0;fontSize=12;startSize=8;endSize=8;" parent="RZGnPOqAcmDjlP5rCY_A-485" source="RZGnPOqAcmDjlP5rCY_A-500" target="RZGnPOqAcmDjlP5rCY_A-495" edge="1">
          <mxGeometry relative="1" as="geometry" />
        </mxCell>
        <mxCell id="RZGnPOqAcmDjlP5rCY_A-500" value="&lt;font&gt;Módulo Conversor Serial&lt;/font&gt;&lt;br&gt;" style="shape=ext;double=1;rounded=1;whiteSpace=wrap;html=1;fontSize=16;" parent="RZGnPOqAcmDjlP5rCY_A-485" vertex="1">
          <mxGeometry x="340" y="296.5" width="80" height="70" as="geometry" />
        </mxCell>
        <mxCell id="RZGnPOqAcmDjlP5rCY_A-501" style="edgeStyle=none;curved=1;rounded=0;orthogonalLoop=1;jettySize=auto;html=1;exitX=0.5;exitY=0;exitDx=0;exitDy=0;entryX=0.5;entryY=1;entryDx=0;entryDy=0;fontSize=12;startSize=8;endSize=8;" parent="RZGnPOqAcmDjlP5rCY_A-485" source="RZGnPOqAcmDjlP5rCY_A-502" target="RZGnPOqAcmDjlP5rCY_A-498" edge="1">
          <mxGeometry relative="1" as="geometry" />
        </mxCell>
        <mxCell id="RZGnPOqAcmDjlP5rCY_A-502" value="&lt;font&gt;Display 1&lt;/font&gt;" style="shape=ext;double=1;rounded=1;whiteSpace=wrap;html=1;fontSize=16;" parent="RZGnPOqAcmDjlP5rCY_A-485" vertex="1">
          <mxGeometry x="260" y="431.5" width="80" height="70" as="geometry" />
        </mxCell>
        <mxCell id="RZGnPOqAcmDjlP5rCY_A-503" style="edgeStyle=none;curved=1;rounded=0;orthogonalLoop=1;jettySize=auto;html=1;fontSize=12;startSize=8;endSize=8;" parent="RZGnPOqAcmDjlP5rCY_A-485" source="RZGnPOqAcmDjlP5rCY_A-504" target="RZGnPOqAcmDjlP5rCY_A-500" edge="1">
          <mxGeometry relative="1" as="geometry" />
        </mxCell>
        <mxCell id="RZGnPOqAcmDjlP5rCY_A-504" value="&lt;font&gt;Display 2&lt;/font&gt;" style="shape=ext;double=1;rounded=1;whiteSpace=wrap;html=1;fontSize=16;" parent="RZGnPOqAcmDjlP5rCY_A-485" vertex="1">
          <mxGeometry x="342.5" y="431.5" width="80" height="70" as="geometry" />
        </mxCell>
        <mxCell id="RZGnPOqAcmDjlP5rCY_A-505" style="edgeStyle=none;curved=1;rounded=0;orthogonalLoop=1;jettySize=auto;html=1;exitX=0;exitY=0.5;exitDx=0;exitDy=0;fontSize=12;startSize=8;endSize=8;entryX=1;entryY=0.5;entryDx=0;entryDy=0;" parent="RZGnPOqAcmDjlP5rCY_A-485" source="RZGnPOqAcmDjlP5rCY_A-506" target="RZGnPOqAcmDjlP5rCY_A-495" edge="1">
          <mxGeometry relative="1" as="geometry">
            <mxPoint x="570" y="221.5" as="targetPoint" />
          </mxGeometry>
        </mxCell>
        <mxCell id="RZGnPOqAcmDjlP5rCY_A-506" value="&lt;font&gt;Sensores&lt;/font&gt;" style="shape=ext;double=1;rounded=1;whiteSpace=wrap;html=1;fontSize=16;" parent="RZGnPOqAcmDjlP5rCY_A-485" vertex="1">
          <mxGeometry x="490" y="200" width="80" height="70" as="geometry" />
        </mxCell>
        <mxCell id="RZGnPOqAcmDjlP5rCY_A-507" style="edgeStyle=none;curved=1;rounded=0;orthogonalLoop=1;jettySize=auto;html=1;exitX=1;exitY=0.25;exitDx=0;exitDy=0;fontSize=12;startSize=8;endSize=8;" parent="RZGnPOqAcmDjlP5rCY_A-485" source="RZGnPOqAcmDjlP5rCY_A-495" target="RZGnPOqAcmDjlP5rCY_A-495" edge="1">
          <mxGeometry relative="1" as="geometry" />
        </mxCell>
        <mxCell id="RZGnPOqAcmDjlP5rCY_A-508" style="edgeStyle=none;curved=1;rounded=0;orthogonalLoop=1;jettySize=auto;html=1;fontSize=12;startSize=8;endSize=8;strokeWidth=4;strokeColor=#0000CC;endArrow=baseDash;endFill=0;startArrow=baseDash;startFill=0;" parent="RZGnPOqAcmDjlP5rCY_A-485" target="RZGnPOqAcmDjlP5rCY_A-491" edge="1">
          <mxGeometry relative="1" as="geometry">
            <mxPoint x="210" as="sourcePoint" />
          </mxGeometry>
        </mxCell>
        <mxCell id="RZGnPOqAcmDjlP5rCY_A-509" value="Rede Lan&lt;br style=&quot;border-color: var(--border-color);&quot;&gt;Comunicação: TCP/IP" style="edgeLabel;html=1;align=center;verticalAlign=middle;resizable=0;points=[];fontSize=16;" parent="RZGnPOqAcmDjlP5rCY_A-508" vertex="1" connectable="0">
          <mxGeometry x="-0.1428" y="-3" relative="1" as="geometry">
            <mxPoint as="offset" />
          </mxGeometry>
        </mxCell>
        <mxCell id="RZGnPOqAcmDjlP5rCY_A-488" style="edgeStyle=none;curved=1;rounded=0;orthogonalLoop=1;jettySize=auto;html=1;fontSize=12;fontColor=#0000CC;strokeWidth=4;strokeColor=#0000CC;endArrow=baseDash;endFill=0;startArrow=baseDash;startFill=0;exitX=1;exitY=0.5;exitDx=0;exitDy=0;" parent="RZGnPOqAcmDjlP5rCY_A-485" source="RZGnPOqAcmDjlP5rCY_A-486" target="RZGnPOqAcmDjlP5rCY_A-493" edge="1">
          <mxGeometry relative="1" as="geometry">
            <mxPoint x="74.99999999999955" y="250.38461538461547" as="sourcePoint" />
          </mxGeometry>
        </mxCell>
        <mxCell id="RZGnPOqAcmDjlP5rCY_A-489" style="rounded=0;orthogonalLoop=1;jettySize=auto;html=1;fontSize=12;strokeColor=#0000CC;strokeWidth=4;endArrow=baseDash;endFill=0;startArrow=baseDash;startFill=0;exitX=1;exitY=0.5;exitDx=0;exitDy=0;" parent="RZGnPOqAcmDjlP5rCY_A-485" source="RZGnPOqAcmDjlP5rCY_A-487" target="RZGnPOqAcmDjlP5rCY_A-494" edge="1">
          <mxGeometry relative="1" as="geometry">
            <mxPoint x="119.99999999999955" y="369.0540540540542" as="sourcePoint" />
          </mxGeometry>
        </mxCell>
        <mxCell id="RZGnPOqAcmDjlP5rCY_A-514" value="MCA KMM - Classificação Linha 2" style="rounded=1;whiteSpace=wrap;html=1;absoluteArcSize=1;arcSize=14;strokeWidth=2;fontSize=16;glass=0;shadow=1;gradientColor=none;labelBackgroundColor=none;labelPosition=center;verticalLabelPosition=top;align=right;verticalAlign=bottom;" parent="1" vertex="1">
          <mxGeometry x="3840" y="210" width="275" height="261.5" as="geometry" />
        </mxCell>
        <mxCell id="RZGnPOqAcmDjlP5rCY_A-516" value="" style="sketch=0;pointerEvents=1;shadow=0;dashed=0;html=1;strokeColor=none;fillColor=#434445;aspect=fixed;labelPosition=center;verticalLabelPosition=bottom;verticalAlign=top;align=center;outlineConnect=0;shape=mxgraph.vvd.ethernet_port;fontSize=16;" parent="1" vertex="1">
          <mxGeometry x="3860" y="280" width="50" height="50" as="geometry" />
        </mxCell>
        <mxCell id="RZGnPOqAcmDjlP5rCY_A-518" value="" style="sketch=0;pointerEvents=1;shadow=0;dashed=0;html=1;strokeColor=none;fillColor=#434445;aspect=fixed;labelPosition=center;verticalLabelPosition=bottom;verticalAlign=top;align=center;outlineConnect=0;shape=mxgraph.vvd.ethernet_port;fontSize=16;" parent="1" vertex="1">
          <mxGeometry x="3860" y="330" width="50" height="50" as="geometry" />
        </mxCell>
        <mxCell id="RZGnPOqAcmDjlP5rCY_A-519" value="CLP&lt;br&gt;&lt;font&gt;ip:porta&lt;/font&gt;" style="shape=ext;double=1;rounded=1;whiteSpace=wrap;html=1;fontSize=16;fillColor=#dae8fc;strokeColor=#6c8ebf;" parent="1" vertex="1">
          <mxGeometry x="3935" y="280" width="155" height="50" as="geometry" />
        </mxCell>
        <mxCell id="RZGnPOqAcmDjlP5rCY_A-520" style="edgeStyle=none;curved=1;rounded=0;orthogonalLoop=1;jettySize=auto;html=1;fontSize=12;startSize=8;endSize=8;endArrow=baseDash;endFill=0;startArrow=baseDash;startFill=0;strokeWidth=4;strokeColor=#0000CC;exitX=0;exitY=0.5;exitDx=0;exitDy=0;" parent="1" source="RZGnPOqAcmDjlP5rCY_A-519" target="RZGnPOqAcmDjlP5rCY_A-516" edge="1">
          <mxGeometry relative="1" as="geometry" />
        </mxCell>
        <mxCell id="RZGnPOqAcmDjlP5rCY_A-521" style="edgeStyle=none;curved=1;rounded=0;orthogonalLoop=1;jettySize=auto;html=1;exitX=0.5;exitY=0;exitDx=0;exitDy=0;fontSize=12;startSize=8;endSize=8;" parent="1" source="RZGnPOqAcmDjlP5rCY_A-522" target="RZGnPOqAcmDjlP5rCY_A-519" edge="1">
          <mxGeometry relative="1" as="geometry" />
        </mxCell>
        <mxCell id="RZGnPOqAcmDjlP5rCY_A-522" value="&lt;font&gt;Módulo Conversor Serial&lt;/font&gt;&lt;br&gt;" style="shape=ext;double=1;rounded=1;whiteSpace=wrap;html=1;fontSize=16;" parent="1" vertex="1">
          <mxGeometry x="3935" y="366.5" width="80" height="70" as="geometry" />
        </mxCell>
        <mxCell id="RZGnPOqAcmDjlP5rCY_A-523" style="edgeStyle=none;curved=1;rounded=0;orthogonalLoop=1;jettySize=auto;html=1;exitX=0.5;exitY=0;exitDx=0;exitDy=0;fontSize=12;startSize=8;endSize=8;" parent="1" source="RZGnPOqAcmDjlP5rCY_A-524" target="RZGnPOqAcmDjlP5rCY_A-519" edge="1">
          <mxGeometry relative="1" as="geometry" />
        </mxCell>
        <mxCell id="RZGnPOqAcmDjlP5rCY_A-524" value="&lt;font&gt;Módulo Conversor Serial&lt;/font&gt;&lt;br&gt;" style="shape=ext;double=1;rounded=1;whiteSpace=wrap;html=1;fontSize=16;" parent="1" vertex="1">
          <mxGeometry x="4015" y="366.5" width="80" height="70" as="geometry" />
        </mxCell>
        <mxCell id="RZGnPOqAcmDjlP5rCY_A-525" style="edgeStyle=none;curved=1;rounded=0;orthogonalLoop=1;jettySize=auto;html=1;exitX=0.5;exitY=0;exitDx=0;exitDy=0;entryX=0.5;entryY=1;entryDx=0;entryDy=0;fontSize=12;startSize=8;endSize=8;" parent="1" source="RZGnPOqAcmDjlP5rCY_A-526" target="RZGnPOqAcmDjlP5rCY_A-522" edge="1">
          <mxGeometry relative="1" as="geometry" />
        </mxCell>
        <mxCell id="RZGnPOqAcmDjlP5rCY_A-526" value="&lt;font&gt;GAC2010&lt;/font&gt;" style="shape=ext;double=1;rounded=1;whiteSpace=wrap;html=1;fontSize=16;" parent="1" vertex="1">
          <mxGeometry x="3935" y="501.5" width="80" height="70" as="geometry" />
        </mxCell>
        <mxCell id="RZGnPOqAcmDjlP5rCY_A-527" style="edgeStyle=none;curved=1;rounded=0;orthogonalLoop=1;jettySize=auto;html=1;fontSize=12;startSize=8;endSize=8;" parent="1" source="RZGnPOqAcmDjlP5rCY_A-528" target="RZGnPOqAcmDjlP5rCY_A-524" edge="1">
          <mxGeometry relative="1" as="geometry" />
        </mxCell>
        <mxCell id="RZGnPOqAcmDjlP5rCY_A-528" value="&lt;font&gt;BK3000&lt;/font&gt;" style="shape=ext;double=1;rounded=1;whiteSpace=wrap;html=1;fontSize=16;" parent="1" vertex="1">
          <mxGeometry x="4017.5" y="501.5" width="80" height="70" as="geometry" />
        </mxCell>
        <mxCell id="RZGnPOqAcmDjlP5rCY_A-531" style="edgeStyle=none;curved=1;rounded=0;orthogonalLoop=1;jettySize=auto;html=1;exitX=1;exitY=0.25;exitDx=0;exitDy=0;fontSize=12;startSize=8;endSize=8;" parent="1" source="RZGnPOqAcmDjlP5rCY_A-519" target="RZGnPOqAcmDjlP5rCY_A-519" edge="1">
          <mxGeometry relative="1" as="geometry" />
        </mxCell>
        <mxCell id="RZGnPOqAcmDjlP5rCY_A-532" style="edgeStyle=none;curved=1;rounded=0;orthogonalLoop=1;jettySize=auto;html=1;fontSize=12;startSize=8;endSize=8;strokeWidth=4;strokeColor=#0000CC;endArrow=baseDash;endFill=0;startArrow=baseDash;startFill=0;entryX=0.5;entryY=1;entryDx=0;entryDy=0;entryPerimeter=0;" parent="1" target="RZGnPOqAcmDjlP5rCY_A-518" edge="1">
          <mxGeometry relative="1" as="geometry">
            <mxPoint x="3884.38" y="618.5000000000002" as="sourcePoint" />
            <mxPoint x="3884.38" y="529.75" as="targetPoint" />
          </mxGeometry>
        </mxCell>
        <mxCell id="RZGnPOqAcmDjlP5rCY_A-533" value="Rede Lan&lt;br style=&quot;border-color: var(--border-color);&quot;&gt;Comunicação: TCP/IP" style="edgeLabel;html=1;align=center;verticalAlign=middle;resizable=0;points=[];fontSize=16;" parent="RZGnPOqAcmDjlP5rCY_A-532" vertex="1" connectable="0">
          <mxGeometry x="-0.1428" y="-3" relative="1" as="geometry">
            <mxPoint x="-45" y="20" as="offset" />
          </mxGeometry>
        </mxCell>
        <mxCell id="RZGnPOqAcmDjlP5rCY_A-534" value="MCA KMM - Classificação Linha 1" style="rounded=1;whiteSpace=wrap;html=1;absoluteArcSize=1;arcSize=14;strokeWidth=2;fontSize=16;glass=0;shadow=1;gradientColor=none;labelBackgroundColor=none;labelPosition=center;verticalLabelPosition=top;align=right;verticalAlign=bottom;" parent="1" vertex="1">
          <mxGeometry x="3270" y="210" width="275" height="261.5" as="geometry" />
        </mxCell>
        <mxCell id="RZGnPOqAcmDjlP5rCY_A-536" value="" style="sketch=0;pointerEvents=1;shadow=0;dashed=0;html=1;strokeColor=none;fillColor=#434445;aspect=fixed;labelPosition=center;verticalLabelPosition=bottom;verticalAlign=top;align=center;outlineConnect=0;shape=mxgraph.vvd.ethernet_port;fontSize=16;" parent="1" vertex="1">
          <mxGeometry x="3290" y="280" width="50" height="50" as="geometry" />
        </mxCell>
        <mxCell id="RZGnPOqAcmDjlP5rCY_A-538" value="" style="sketch=0;pointerEvents=1;shadow=0;dashed=0;html=1;strokeColor=none;fillColor=#434445;aspect=fixed;labelPosition=center;verticalLabelPosition=bottom;verticalAlign=top;align=center;outlineConnect=0;shape=mxgraph.vvd.ethernet_port;fontSize=16;" parent="1" vertex="1">
          <mxGeometry x="3290" y="330" width="50" height="50" as="geometry" />
        </mxCell>
        <mxCell id="RZGnPOqAcmDjlP5rCY_A-539" value="CLP&lt;br&gt;&lt;font&gt;ip:porta&lt;/font&gt;" style="shape=ext;double=1;rounded=1;whiteSpace=wrap;html=1;fontSize=16;fillColor=#dae8fc;strokeColor=#6c8ebf;" parent="1" vertex="1">
          <mxGeometry x="3365" y="280" width="155" height="50" as="geometry" />
        </mxCell>
        <mxCell id="RZGnPOqAcmDjlP5rCY_A-540" style="edgeStyle=none;curved=1;rounded=0;orthogonalLoop=1;jettySize=auto;html=1;fontSize=12;startSize=8;endSize=8;endArrow=baseDash;endFill=0;startArrow=baseDash;startFill=0;strokeWidth=4;strokeColor=#0000CC;exitX=0;exitY=0.5;exitDx=0;exitDy=0;" parent="1" source="RZGnPOqAcmDjlP5rCY_A-539" target="RZGnPOqAcmDjlP5rCY_A-536" edge="1">
          <mxGeometry relative="1" as="geometry" />
        </mxCell>
        <mxCell id="RZGnPOqAcmDjlP5rCY_A-541" style="edgeStyle=none;curved=1;rounded=0;orthogonalLoop=1;jettySize=auto;html=1;exitX=0.5;exitY=0;exitDx=0;exitDy=0;fontSize=12;startSize=8;endSize=8;" parent="1" source="RZGnPOqAcmDjlP5rCY_A-542" target="RZGnPOqAcmDjlP5rCY_A-539" edge="1">
          <mxGeometry relative="1" as="geometry" />
        </mxCell>
        <mxCell id="RZGnPOqAcmDjlP5rCY_A-542" value="&lt;font&gt;Módulo Conversor Serial&lt;/font&gt;&lt;br&gt;" style="shape=ext;double=1;rounded=1;whiteSpace=wrap;html=1;fontSize=16;" parent="1" vertex="1">
          <mxGeometry x="3365" y="366.5" width="80" height="70" as="geometry" />
        </mxCell>
        <mxCell id="RZGnPOqAcmDjlP5rCY_A-543" style="edgeStyle=none;curved=1;rounded=0;orthogonalLoop=1;jettySize=auto;html=1;exitX=0.5;exitY=0;exitDx=0;exitDy=0;fontSize=12;startSize=8;endSize=8;" parent="1" source="RZGnPOqAcmDjlP5rCY_A-544" target="RZGnPOqAcmDjlP5rCY_A-539" edge="1">
          <mxGeometry relative="1" as="geometry" />
        </mxCell>
        <mxCell id="RZGnPOqAcmDjlP5rCY_A-544" value="&lt;font&gt;Módulo Conversor Serial&lt;/font&gt;&lt;br&gt;" style="shape=ext;double=1;rounded=1;whiteSpace=wrap;html=1;fontSize=16;" parent="1" vertex="1">
          <mxGeometry x="3445" y="366.5" width="80" height="70" as="geometry" />
        </mxCell>
        <mxCell id="RZGnPOqAcmDjlP5rCY_A-545" style="edgeStyle=none;curved=1;rounded=0;orthogonalLoop=1;jettySize=auto;html=1;exitX=0.5;exitY=0;exitDx=0;exitDy=0;entryX=0.5;entryY=1;entryDx=0;entryDy=0;fontSize=12;startSize=8;endSize=8;" parent="1" source="RZGnPOqAcmDjlP5rCY_A-546" target="RZGnPOqAcmDjlP5rCY_A-542" edge="1">
          <mxGeometry relative="1" as="geometry" />
        </mxCell>
        <mxCell id="RZGnPOqAcmDjlP5rCY_A-546" value="&lt;font&gt;GAC2010&lt;/font&gt;" style="shape=ext;double=1;rounded=1;whiteSpace=wrap;html=1;fontSize=16;" parent="1" vertex="1">
          <mxGeometry x="3365" y="501.5" width="80" height="70" as="geometry" />
        </mxCell>
        <mxCell id="RZGnPOqAcmDjlP5rCY_A-547" style="edgeStyle=none;curved=1;rounded=0;orthogonalLoop=1;jettySize=auto;html=1;fontSize=12;startSize=8;endSize=8;" parent="1" source="RZGnPOqAcmDjlP5rCY_A-548" target="RZGnPOqAcmDjlP5rCY_A-544" edge="1">
          <mxGeometry relative="1" as="geometry" />
        </mxCell>
        <mxCell id="RZGnPOqAcmDjlP5rCY_A-548" value="&lt;font&gt;BK3000&lt;/font&gt;" style="shape=ext;double=1;rounded=1;whiteSpace=wrap;html=1;fontSize=16;" parent="1" vertex="1">
          <mxGeometry x="3447.5" y="501.5" width="80" height="70" as="geometry" />
        </mxCell>
        <mxCell id="RZGnPOqAcmDjlP5rCY_A-549" style="edgeStyle=none;curved=1;rounded=0;orthogonalLoop=1;jettySize=auto;html=1;exitX=1;exitY=0.25;exitDx=0;exitDy=0;fontSize=12;startSize=8;endSize=8;" parent="1" source="RZGnPOqAcmDjlP5rCY_A-539" target="RZGnPOqAcmDjlP5rCY_A-539" edge="1">
          <mxGeometry relative="1" as="geometry" />
        </mxCell>
        <mxCell id="RZGnPOqAcmDjlP5rCY_A-550" style="edgeStyle=none;curved=1;rounded=0;orthogonalLoop=1;jettySize=auto;html=1;fontSize=12;startSize=8;endSize=8;strokeWidth=4;strokeColor=#0000CC;endArrow=baseDash;endFill=0;startArrow=baseDash;startFill=0;entryX=0.5;entryY=1;entryDx=0;entryDy=0;entryPerimeter=0;" parent="1" target="RZGnPOqAcmDjlP5rCY_A-538" edge="1">
          <mxGeometry relative="1" as="geometry">
            <mxPoint x="3314.38" y="618.5000000000002" as="sourcePoint" />
            <mxPoint x="3314.38" y="529.75" as="targetPoint" />
          </mxGeometry>
        </mxCell>
        <mxCell id="RZGnPOqAcmDjlP5rCY_A-551" value="Rede Lan&lt;br style=&quot;border-color: var(--border-color);&quot;&gt;Comunicação: TCP/IP" style="edgeLabel;html=1;align=center;verticalAlign=middle;resizable=0;points=[];fontSize=16;" parent="RZGnPOqAcmDjlP5rCY_A-550" vertex="1" connectable="0">
          <mxGeometry x="-0.1428" y="-3" relative="1" as="geometry">
            <mxPoint x="-48" y="4" as="offset" />
          </mxGeometry>
        </mxCell>
        <mxCell id="RZGnPOqAcmDjlP5rCY_A-594" value="" style="group" parent="1" vertex="1" connectable="0">
          <mxGeometry x="1400" y="120" width="590" height="361.5" as="geometry" />
        </mxCell>
        <mxCell id="RZGnPOqAcmDjlP5rCY_A-559" value="&lt;font&gt;Câmera&lt;/font&gt;&lt;br&gt;&lt;font&gt;ip:porta&lt;/font&gt;" style="shape=ext;double=1;rounded=1;whiteSpace=wrap;html=1;fontSize=16;fillColor=#dae8fc;strokeColor=#6c8ebf;" parent="RZGnPOqAcmDjlP5rCY_A-594" vertex="1">
          <mxGeometry y="120" width="120" height="50" as="geometry" />
        </mxCell>
        <mxCell id="RZGnPOqAcmDjlP5rCY_A-562" value="MCA KMM - Portaria Entrada" style="rounded=1;whiteSpace=wrap;html=1;absoluteArcSize=1;arcSize=14;strokeWidth=2;fontSize=16;glass=0;shadow=1;gradientColor=none;labelBackgroundColor=none;labelPosition=center;verticalLabelPosition=top;align=center;verticalAlign=bottom;" parent="RZGnPOqAcmDjlP5rCY_A-594" vertex="1">
          <mxGeometry x="165" width="310" height="261.5" as="geometry" />
        </mxCell>
        <mxCell id="RZGnPOqAcmDjlP5rCY_A-564" value="" style="sketch=0;pointerEvents=1;shadow=0;dashed=0;html=1;strokeColor=none;fillColor=#434445;aspect=fixed;labelPosition=center;verticalLabelPosition=bottom;verticalAlign=top;align=center;outlineConnect=0;shape=mxgraph.vvd.ethernet_port;fontSize=16;gradientColor=none;fillStyle=solid;" parent="RZGnPOqAcmDjlP5rCY_A-594" vertex="1">
          <mxGeometry x="185" y="70" width="50" height="50" as="geometry" />
        </mxCell>
        <mxCell id="RZGnPOqAcmDjlP5rCY_A-565" value="" style="sketch=0;pointerEvents=1;shadow=0;dashed=0;html=1;strokeColor=none;fillColor=#434445;aspect=fixed;labelPosition=center;verticalLabelPosition=bottom;verticalAlign=top;align=center;outlineConnect=0;shape=mxgraph.vvd.ethernet_port;fontSize=16;gradientColor=none;fillStyle=solid;" parent="RZGnPOqAcmDjlP5rCY_A-594" vertex="1">
          <mxGeometry x="185" y="120" width="50" height="50" as="geometry" />
        </mxCell>
        <mxCell id="RZGnPOqAcmDjlP5rCY_A-566" value="" style="sketch=0;pointerEvents=1;shadow=0;dashed=0;html=1;strokeColor=none;fillColor=#434445;aspect=fixed;labelPosition=center;verticalLabelPosition=bottom;verticalAlign=top;align=center;outlineConnect=0;shape=mxgraph.vvd.ethernet_port;fontSize=16;gradientColor=none;fillStyle=solid;" parent="RZGnPOqAcmDjlP5rCY_A-594" vertex="1">
          <mxGeometry x="185" y="170" width="50" height="50" as="geometry" />
        </mxCell>
        <mxCell id="RZGnPOqAcmDjlP5rCY_A-567" value="CLP&lt;br&gt;&lt;font&gt;ip:porta&lt;/font&gt;" style="shape=ext;double=1;rounded=1;whiteSpace=wrap;html=1;fontSize=16;fillColor=#dae8fc;strokeColor=#6c8ebf;" parent="RZGnPOqAcmDjlP5rCY_A-594" vertex="1">
          <mxGeometry x="260" y="70" width="165" height="50" as="geometry" />
        </mxCell>
        <mxCell id="RZGnPOqAcmDjlP5rCY_A-568" style="edgeStyle=none;curved=1;rounded=0;orthogonalLoop=1;jettySize=auto;html=1;fontSize=12;startSize=8;endSize=8;endArrow=baseDash;endFill=0;startArrow=baseDash;startFill=0;strokeWidth=4;strokeColor=#0000CC;exitX=0;exitY=0.5;exitDx=0;exitDy=0;" parent="RZGnPOqAcmDjlP5rCY_A-594" source="RZGnPOqAcmDjlP5rCY_A-567" target="RZGnPOqAcmDjlP5rCY_A-564" edge="1">
          <mxGeometry relative="1" as="geometry" />
        </mxCell>
        <mxCell id="RZGnPOqAcmDjlP5rCY_A-569" style="edgeStyle=none;curved=1;rounded=0;orthogonalLoop=1;jettySize=auto;html=1;exitX=0.5;exitY=0;exitDx=0;exitDy=0;fontSize=12;startSize=8;endSize=8;" parent="RZGnPOqAcmDjlP5rCY_A-594" source="RZGnPOqAcmDjlP5rCY_A-570" target="RZGnPOqAcmDjlP5rCY_A-567" edge="1">
          <mxGeometry relative="1" as="geometry" />
        </mxCell>
        <mxCell id="RZGnPOqAcmDjlP5rCY_A-570" value="&lt;font&gt;Módulo Conversor Serial&lt;/font&gt;&lt;br&gt;" style="shape=ext;double=1;rounded=1;whiteSpace=wrap;html=1;fontSize=16;" parent="RZGnPOqAcmDjlP5rCY_A-594" vertex="1">
          <mxGeometry x="260" y="156.5" width="80" height="70" as="geometry" />
        </mxCell>
        <mxCell id="RZGnPOqAcmDjlP5rCY_A-571" style="edgeStyle=none;curved=1;rounded=0;orthogonalLoop=1;jettySize=auto;html=1;exitX=0.5;exitY=0;exitDx=0;exitDy=0;fontSize=12;startSize=8;endSize=8;" parent="RZGnPOqAcmDjlP5rCY_A-594" source="RZGnPOqAcmDjlP5rCY_A-572" target="RZGnPOqAcmDjlP5rCY_A-567" edge="1">
          <mxGeometry relative="1" as="geometry" />
        </mxCell>
        <mxCell id="RZGnPOqAcmDjlP5rCY_A-572" value="&lt;font&gt;Módulo Conversor Serial&lt;/font&gt;&lt;br&gt;" style="shape=ext;double=1;rounded=1;whiteSpace=wrap;html=1;fontSize=16;" parent="RZGnPOqAcmDjlP5rCY_A-594" vertex="1">
          <mxGeometry x="340" y="156.5" width="80" height="70" as="geometry" />
        </mxCell>
        <mxCell id="RZGnPOqAcmDjlP5rCY_A-577" style="edgeStyle=none;curved=1;rounded=0;orthogonalLoop=1;jettySize=auto;html=1;exitX=0.5;exitY=0;exitDx=0;exitDy=0;entryX=0.5;entryY=1;entryDx=0;entryDy=0;fontSize=12;startSize=8;endSize=8;" parent="RZGnPOqAcmDjlP5rCY_A-594" source="RZGnPOqAcmDjlP5rCY_A-578" target="RZGnPOqAcmDjlP5rCY_A-570" edge="1">
          <mxGeometry relative="1" as="geometry" />
        </mxCell>
        <mxCell id="RZGnPOqAcmDjlP5rCY_A-578" value="&lt;font&gt;Display 1&lt;/font&gt;" style="shape=ext;double=1;rounded=1;whiteSpace=wrap;html=1;fontSize=16;" parent="RZGnPOqAcmDjlP5rCY_A-594" vertex="1">
          <mxGeometry x="260" y="291.5" width="80" height="70" as="geometry" />
        </mxCell>
        <mxCell id="RZGnPOqAcmDjlP5rCY_A-579" style="edgeStyle=none;curved=1;rounded=0;orthogonalLoop=1;jettySize=auto;html=1;fontSize=12;startSize=8;endSize=8;" parent="RZGnPOqAcmDjlP5rCY_A-594" source="RZGnPOqAcmDjlP5rCY_A-580" target="RZGnPOqAcmDjlP5rCY_A-572" edge="1">
          <mxGeometry relative="1" as="geometry" />
        </mxCell>
        <mxCell id="RZGnPOqAcmDjlP5rCY_A-580" value="&lt;font&gt;Antena 1&lt;/font&gt;" style="shape=ext;double=1;rounded=1;whiteSpace=wrap;html=1;fontSize=16;" parent="RZGnPOqAcmDjlP5rCY_A-594" vertex="1">
          <mxGeometry x="342.5" y="291.5" width="80" height="70" as="geometry" />
        </mxCell>
        <mxCell id="RZGnPOqAcmDjlP5rCY_A-585" style="edgeStyle=none;curved=1;rounded=0;orthogonalLoop=1;jettySize=auto;html=1;exitX=0;exitY=0.5;exitDx=0;exitDy=0;fontSize=12;startSize=8;endSize=8;entryX=1;entryY=0.5;entryDx=0;entryDy=0;" parent="RZGnPOqAcmDjlP5rCY_A-594" source="RZGnPOqAcmDjlP5rCY_A-586" target="RZGnPOqAcmDjlP5rCY_A-567" edge="1">
          <mxGeometry relative="1" as="geometry">
            <mxPoint x="570" y="81.5" as="targetPoint" />
          </mxGeometry>
        </mxCell>
        <mxCell id="RZGnPOqAcmDjlP5rCY_A-586" value="&lt;font&gt;Sensores&lt;/font&gt;" style="shape=ext;double=1;rounded=1;whiteSpace=wrap;html=1;fontSize=16;" parent="RZGnPOqAcmDjlP5rCY_A-594" vertex="1">
          <mxGeometry x="510" y="28.25" width="80" height="70" as="geometry" />
        </mxCell>
        <mxCell id="RZGnPOqAcmDjlP5rCY_A-587" style="edgeStyle=none;curved=1;rounded=0;orthogonalLoop=1;jettySize=auto;html=1;exitX=1;exitY=0.25;exitDx=0;exitDy=0;fontSize=12;startSize=8;endSize=8;" parent="RZGnPOqAcmDjlP5rCY_A-594" source="RZGnPOqAcmDjlP5rCY_A-567" target="RZGnPOqAcmDjlP5rCY_A-567" edge="1">
          <mxGeometry relative="1" as="geometry" />
        </mxCell>
        <mxCell id="RZGnPOqAcmDjlP5rCY_A-588" style="edgeStyle=none;curved=1;rounded=0;orthogonalLoop=1;jettySize=auto;html=1;entryX=1;entryY=0.75;entryDx=0;entryDy=0;fontSize=12;startSize=8;endSize=8;" parent="RZGnPOqAcmDjlP5rCY_A-594" source="RZGnPOqAcmDjlP5rCY_A-589" target="RZGnPOqAcmDjlP5rCY_A-567" edge="1">
          <mxGeometry relative="1" as="geometry" />
        </mxCell>
        <mxCell id="RZGnPOqAcmDjlP5rCY_A-589" value="&lt;font&gt;Cancela&lt;/font&gt;" style="shape=ext;double=1;rounded=1;whiteSpace=wrap;html=1;fontSize=16;" parent="RZGnPOqAcmDjlP5rCY_A-594" vertex="1">
          <mxGeometry x="510" y="114.75" width="80" height="70" as="geometry" />
        </mxCell>
        <mxCell id="RZGnPOqAcmDjlP5rCY_A-592" style="edgeStyle=none;curved=1;rounded=0;orthogonalLoop=1;jettySize=auto;html=1;fontSize=12;startSize=8;endSize=8;strokeWidth=4;strokeColor=#0000CC;endArrow=baseDash;endFill=0;startArrow=baseDash;startFill=0;" parent="RZGnPOqAcmDjlP5rCY_A-594" target="RZGnPOqAcmDjlP5rCY_A-280" edge="1">
          <mxGeometry relative="1" as="geometry">
            <mxPoint x="209.17000000000007" y="220" as="sourcePoint" />
            <mxPoint x="209.17000000000007" y="380" as="targetPoint" />
          </mxGeometry>
        </mxCell>
        <mxCell id="RZGnPOqAcmDjlP5rCY_A-593" value="Rede Lan&lt;br style=&quot;border-color: var(--border-color);&quot;&gt;Comunicação: TCP/IP" style="edgeLabel;html=1;align=center;verticalAlign=middle;resizable=0;points=[];fontSize=16;" parent="RZGnPOqAcmDjlP5rCY_A-592" vertex="1" connectable="0">
          <mxGeometry x="-0.1428" y="-3" relative="1" as="geometry">
            <mxPoint y="80" as="offset" />
          </mxGeometry>
        </mxCell>
        <mxCell id="RZGnPOqAcmDjlP5rCY_A-590" style="edgeStyle=none;curved=1;rounded=0;orthogonalLoop=1;jettySize=auto;html=1;fontSize=12;fontColor=#0000CC;strokeWidth=4;strokeColor=#0000CC;endArrow=baseDash;endFill=0;startArrow=baseDash;startFill=0;exitX=1;exitY=0.5;exitDx=0;exitDy=0;" parent="RZGnPOqAcmDjlP5rCY_A-594" source="RZGnPOqAcmDjlP5rCY_A-559" target="RZGnPOqAcmDjlP5rCY_A-565" edge="1">
          <mxGeometry relative="1" as="geometry">
            <mxPoint x="74.99999999999955" y="110.38461538461547" as="sourcePoint" />
          </mxGeometry>
        </mxCell>
        <mxCell id="RZGnPOqAcmDjlP5rCY_A-595" value="" style="group" parent="1" vertex="1" connectable="0">
          <mxGeometry x="2070" y="120" width="590" height="361.5" as="geometry" />
        </mxCell>
        <mxCell id="RZGnPOqAcmDjlP5rCY_A-596" value="&lt;font&gt;Câmera&lt;/font&gt;&lt;br&gt;&lt;font&gt;ip:porta&lt;/font&gt;" style="shape=ext;double=1;rounded=1;whiteSpace=wrap;html=1;fontSize=16;fillColor=#dae8fc;strokeColor=#6c8ebf;" parent="RZGnPOqAcmDjlP5rCY_A-595" vertex="1">
          <mxGeometry y="120" width="120" height="50" as="geometry" />
        </mxCell>
        <mxCell id="RZGnPOqAcmDjlP5rCY_A-598" value="MCA KMM - Portaria Saida" style="rounded=1;whiteSpace=wrap;html=1;absoluteArcSize=1;arcSize=14;strokeWidth=2;fontSize=16;glass=0;shadow=1;gradientColor=none;labelBackgroundColor=none;labelPosition=center;verticalLabelPosition=top;align=center;verticalAlign=bottom;" parent="RZGnPOqAcmDjlP5rCY_A-595" vertex="1">
          <mxGeometry x="165" width="310" height="261.5" as="geometry" />
        </mxCell>
        <mxCell id="RZGnPOqAcmDjlP5rCY_A-600" value="" style="sketch=0;pointerEvents=1;shadow=0;dashed=0;html=1;strokeColor=none;fillColor=#434445;aspect=fixed;labelPosition=center;verticalLabelPosition=bottom;verticalAlign=top;align=center;outlineConnect=0;shape=mxgraph.vvd.ethernet_port;fontSize=16;" parent="RZGnPOqAcmDjlP5rCY_A-595" vertex="1">
          <mxGeometry x="185" y="70" width="50" height="50" as="geometry" />
        </mxCell>
        <mxCell id="RZGnPOqAcmDjlP5rCY_A-601" value="" style="sketch=0;pointerEvents=1;shadow=0;dashed=0;html=1;strokeColor=none;fillColor=#434445;aspect=fixed;labelPosition=center;verticalLabelPosition=bottom;verticalAlign=top;align=center;outlineConnect=0;shape=mxgraph.vvd.ethernet_port;fontSize=16;" parent="RZGnPOqAcmDjlP5rCY_A-595" vertex="1">
          <mxGeometry x="185" y="120" width="50" height="50" as="geometry" />
        </mxCell>
        <mxCell id="RZGnPOqAcmDjlP5rCY_A-602" value="" style="sketch=0;pointerEvents=1;shadow=0;dashed=0;html=1;strokeColor=none;fillColor=#434445;aspect=fixed;labelPosition=center;verticalLabelPosition=bottom;verticalAlign=top;align=center;outlineConnect=0;shape=mxgraph.vvd.ethernet_port;fontSize=16;" parent="RZGnPOqAcmDjlP5rCY_A-595" vertex="1">
          <mxGeometry x="185" y="170" width="50" height="50" as="geometry" />
        </mxCell>
        <mxCell id="RZGnPOqAcmDjlP5rCY_A-603" value="CLP&lt;br&gt;&lt;font&gt;ip:porta&lt;/font&gt;" style="shape=ext;double=1;rounded=1;whiteSpace=wrap;html=1;fontSize=16;fillColor=#dae8fc;strokeColor=#6c8ebf;" parent="RZGnPOqAcmDjlP5rCY_A-595" vertex="1">
          <mxGeometry x="260" y="70" width="165" height="50" as="geometry" />
        </mxCell>
        <mxCell id="RZGnPOqAcmDjlP5rCY_A-604" style="edgeStyle=none;curved=1;rounded=0;orthogonalLoop=1;jettySize=auto;html=1;fontSize=12;startSize=8;endSize=8;endArrow=baseDash;endFill=0;startArrow=baseDash;startFill=0;strokeWidth=4;strokeColor=#0000CC;exitX=0;exitY=0.5;exitDx=0;exitDy=0;" parent="RZGnPOqAcmDjlP5rCY_A-595" source="RZGnPOqAcmDjlP5rCY_A-603" target="RZGnPOqAcmDjlP5rCY_A-600" edge="1">
          <mxGeometry relative="1" as="geometry" />
        </mxCell>
        <mxCell id="RZGnPOqAcmDjlP5rCY_A-605" style="edgeStyle=none;curved=1;rounded=0;orthogonalLoop=1;jettySize=auto;html=1;exitX=0.5;exitY=0;exitDx=0;exitDy=0;fontSize=12;startSize=8;endSize=8;" parent="RZGnPOqAcmDjlP5rCY_A-595" source="RZGnPOqAcmDjlP5rCY_A-606" target="RZGnPOqAcmDjlP5rCY_A-603" edge="1">
          <mxGeometry relative="1" as="geometry" />
        </mxCell>
        <mxCell id="RZGnPOqAcmDjlP5rCY_A-606" value="&lt;font&gt;Módulo Conversor Serial&lt;/font&gt;&lt;br&gt;" style="shape=ext;double=1;rounded=1;whiteSpace=wrap;html=1;fontSize=16;" parent="RZGnPOqAcmDjlP5rCY_A-595" vertex="1">
          <mxGeometry x="260" y="156.5" width="80" height="70" as="geometry" />
        </mxCell>
        <mxCell id="RZGnPOqAcmDjlP5rCY_A-607" style="edgeStyle=none;curved=1;rounded=0;orthogonalLoop=1;jettySize=auto;html=1;exitX=0.5;exitY=0;exitDx=0;exitDy=0;fontSize=12;startSize=8;endSize=8;" parent="RZGnPOqAcmDjlP5rCY_A-595" source="RZGnPOqAcmDjlP5rCY_A-608" target="RZGnPOqAcmDjlP5rCY_A-603" edge="1">
          <mxGeometry relative="1" as="geometry" />
        </mxCell>
        <mxCell id="RZGnPOqAcmDjlP5rCY_A-608" value="&lt;font&gt;Módulo Conversor Serial&lt;/font&gt;&lt;br&gt;" style="shape=ext;double=1;rounded=1;whiteSpace=wrap;html=1;fontSize=16;" parent="RZGnPOqAcmDjlP5rCY_A-595" vertex="1">
          <mxGeometry x="340" y="156.5" width="80" height="70" as="geometry" />
        </mxCell>
        <mxCell id="RZGnPOqAcmDjlP5rCY_A-609" style="edgeStyle=none;curved=1;rounded=0;orthogonalLoop=1;jettySize=auto;html=1;exitX=0.5;exitY=0;exitDx=0;exitDy=0;entryX=0.5;entryY=1;entryDx=0;entryDy=0;fontSize=12;startSize=8;endSize=8;" parent="RZGnPOqAcmDjlP5rCY_A-595" source="RZGnPOqAcmDjlP5rCY_A-610" target="RZGnPOqAcmDjlP5rCY_A-606" edge="1">
          <mxGeometry relative="1" as="geometry" />
        </mxCell>
        <mxCell id="RZGnPOqAcmDjlP5rCY_A-610" value="&lt;font&gt;Display 1&lt;/font&gt;" style="shape=ext;double=1;rounded=1;whiteSpace=wrap;html=1;fontSize=16;" parent="RZGnPOqAcmDjlP5rCY_A-595" vertex="1">
          <mxGeometry x="260" y="291.5" width="80" height="70" as="geometry" />
        </mxCell>
        <mxCell id="RZGnPOqAcmDjlP5rCY_A-611" style="edgeStyle=none;curved=1;rounded=0;orthogonalLoop=1;jettySize=auto;html=1;fontSize=12;startSize=8;endSize=8;" parent="RZGnPOqAcmDjlP5rCY_A-595" source="RZGnPOqAcmDjlP5rCY_A-612" target="RZGnPOqAcmDjlP5rCY_A-608" edge="1">
          <mxGeometry relative="1" as="geometry" />
        </mxCell>
        <mxCell id="RZGnPOqAcmDjlP5rCY_A-612" value="&lt;font&gt;Antena 1&lt;/font&gt;" style="shape=ext;double=1;rounded=1;whiteSpace=wrap;html=1;fontSize=16;" parent="RZGnPOqAcmDjlP5rCY_A-595" vertex="1">
          <mxGeometry x="342.5" y="291.5" width="80" height="70" as="geometry" />
        </mxCell>
        <mxCell id="RZGnPOqAcmDjlP5rCY_A-613" style="edgeStyle=none;curved=1;rounded=0;orthogonalLoop=1;jettySize=auto;html=1;exitX=0;exitY=0.5;exitDx=0;exitDy=0;fontSize=12;startSize=8;endSize=8;entryX=1;entryY=0.5;entryDx=0;entryDy=0;" parent="RZGnPOqAcmDjlP5rCY_A-595" source="RZGnPOqAcmDjlP5rCY_A-614" target="RZGnPOqAcmDjlP5rCY_A-603" edge="1">
          <mxGeometry relative="1" as="geometry">
            <mxPoint x="570" y="81.5" as="targetPoint" />
          </mxGeometry>
        </mxCell>
        <mxCell id="RZGnPOqAcmDjlP5rCY_A-614" value="&lt;font&gt;Sensores&lt;/font&gt;" style="shape=ext;double=1;rounded=1;whiteSpace=wrap;html=1;fontSize=16;" parent="RZGnPOqAcmDjlP5rCY_A-595" vertex="1">
          <mxGeometry x="510" y="28.25" width="80" height="70" as="geometry" />
        </mxCell>
        <mxCell id="RZGnPOqAcmDjlP5rCY_A-615" style="edgeStyle=none;curved=1;rounded=0;orthogonalLoop=1;jettySize=auto;html=1;exitX=1;exitY=0.25;exitDx=0;exitDy=0;fontSize=12;startSize=8;endSize=8;" parent="RZGnPOqAcmDjlP5rCY_A-595" source="RZGnPOqAcmDjlP5rCY_A-603" target="RZGnPOqAcmDjlP5rCY_A-603" edge="1">
          <mxGeometry relative="1" as="geometry" />
        </mxCell>
        <mxCell id="RZGnPOqAcmDjlP5rCY_A-616" style="edgeStyle=none;curved=1;rounded=0;orthogonalLoop=1;jettySize=auto;html=1;entryX=1;entryY=0.75;entryDx=0;entryDy=0;fontSize=12;startSize=8;endSize=8;" parent="RZGnPOqAcmDjlP5rCY_A-595" source="RZGnPOqAcmDjlP5rCY_A-617" target="RZGnPOqAcmDjlP5rCY_A-603" edge="1">
          <mxGeometry relative="1" as="geometry" />
        </mxCell>
        <mxCell id="RZGnPOqAcmDjlP5rCY_A-617" value="&lt;font&gt;Cancela&lt;/font&gt;" style="shape=ext;double=1;rounded=1;whiteSpace=wrap;html=1;fontSize=16;" parent="RZGnPOqAcmDjlP5rCY_A-595" vertex="1">
          <mxGeometry x="510" y="114.75" width="80" height="70" as="geometry" />
        </mxCell>
        <mxCell id="RZGnPOqAcmDjlP5rCY_A-618" style="edgeStyle=none;curved=1;rounded=0;orthogonalLoop=1;jettySize=auto;html=1;fontSize=12;startSize=8;endSize=8;strokeWidth=4;strokeColor=#0000CC;endArrow=baseDash;endFill=0;startArrow=baseDash;startFill=0;" parent="RZGnPOqAcmDjlP5rCY_A-595" target="RZGnPOqAcmDjlP5rCY_A-280" edge="1">
          <mxGeometry relative="1" as="geometry">
            <mxPoint x="209.17000000000007" y="220" as="sourcePoint" />
            <mxPoint x="209.17000000000007" y="380" as="targetPoint" />
          </mxGeometry>
        </mxCell>
        <mxCell id="RZGnPOqAcmDjlP5rCY_A-619" value="Rede Lan&lt;br style=&quot;border-color: var(--border-color);&quot;&gt;Comunicação: TCP/IP" style="edgeLabel;html=1;align=center;verticalAlign=middle;resizable=0;points=[];fontSize=16;" parent="RZGnPOqAcmDjlP5rCY_A-618" vertex="1" connectable="0">
          <mxGeometry x="-0.1428" y="-3" relative="1" as="geometry">
            <mxPoint x="4" y="60" as="offset" />
          </mxGeometry>
        </mxCell>
        <mxCell id="RZGnPOqAcmDjlP5rCY_A-597" style="edgeStyle=none;curved=1;rounded=0;orthogonalLoop=1;jettySize=auto;html=1;fontSize=12;fontColor=#0000CC;strokeWidth=4;strokeColor=#0000CC;endArrow=baseDash;endFill=0;startArrow=baseDash;startFill=0;exitX=1;exitY=0.5;exitDx=0;exitDy=0;" parent="RZGnPOqAcmDjlP5rCY_A-595" source="RZGnPOqAcmDjlP5rCY_A-596" target="RZGnPOqAcmDjlP5rCY_A-601" edge="1">
          <mxGeometry relative="1" as="geometry">
            <mxPoint x="74.99999999999955" y="110.38461538461547" as="sourcePoint" />
          </mxGeometry>
        </mxCell>
        <mxCell id="RZGnPOqAcmDjlP5rCY_A-634" value="Servidor On primesse" style="rounded=1;whiteSpace=wrap;html=1;absoluteArcSize=1;arcSize=14;strokeWidth=2;fontSize=16;glass=0;shadow=1;gradientColor=none;labelBackgroundColor=none;labelPosition=center;verticalLabelPosition=top;align=right;verticalAlign=bottom;" parent="1" vertex="1">
          <mxGeometry x="860" y="773.5" width="275" height="231.5" as="geometry" />
        </mxCell>
        <mxCell id="RZGnPOqAcmDjlP5rCY_A-638" value="" style="edgeStyle=none;curved=1;rounded=0;orthogonalLoop=1;jettySize=auto;html=1;fontSize=12;startSize=8;endSize=8;strokeColor=#0000CC;strokeWidth=4;endArrow=baseDash;endFill=0;startArrow=baseDash;startFill=0;" parent="1" source="RZGnPOqAcmDjlP5rCY_A-635" target="RZGnPOqAcmDjlP5rCY_A-280" edge="1">
          <mxGeometry relative="1" as="geometry" />
        </mxCell>
        <mxCell id="RZGnPOqAcmDjlP5rCY_A-639" value="Rede Lan&lt;br style=&quot;border-color: var(--border-color);&quot;&gt;Comunicação: TCP/IP" style="edgeLabel;html=1;align=center;verticalAlign=middle;resizable=0;points=[];fontSize=16;" parent="RZGnPOqAcmDjlP5rCY_A-638" vertex="1" connectable="0">
          <mxGeometry x="0.1599" y="2" relative="1" as="geometry">
            <mxPoint as="offset" />
          </mxGeometry>
        </mxCell>
        <mxCell id="RZGnPOqAcmDjlP5rCY_A-635" value="" style="sketch=0;pointerEvents=1;shadow=0;dashed=0;html=1;strokeColor=none;fillColor=#434445;aspect=fixed;labelPosition=center;verticalLabelPosition=bottom;verticalAlign=top;align=center;outlineConnect=0;shape=mxgraph.vvd.ethernet_port;fontSize=16;" parent="1" vertex="1">
          <mxGeometry x="880" y="800" width="50" height="50" as="geometry" />
        </mxCell>
        <mxCell id="RZGnPOqAcmDjlP5rCY_A-633" value="" style="verticalLabelPosition=bottom;sketch=0;aspect=fixed;html=1;verticalAlign=top;strokeColor=none;align=center;outlineConnect=0;shape=mxgraph.citrix.database_server;fontSize=16;" parent="1" vertex="1">
          <mxGeometry x="970" y="817.5" width="136.44" height="153.5" as="geometry" />
        </mxCell>
        <mxCell id="RZGnPOqAcmDjlP5rCY_A-645" value="" style="group" parent="1" vertex="1" connectable="0">
          <mxGeometry x="2770" y="220" width="275" height="398.5000000000002" as="geometry" />
        </mxCell>
        <mxCell id="RZGnPOqAcmDjlP5rCY_A-552" value="Computador Classificação" style="rounded=1;whiteSpace=wrap;html=1;absoluteArcSize=1;arcSize=14;strokeWidth=2;fontSize=16;glass=0;shadow=1;gradientColor=none;labelBackgroundColor=none;labelPosition=center;verticalLabelPosition=top;align=right;verticalAlign=bottom;" parent="RZGnPOqAcmDjlP5rCY_A-645" vertex="1">
          <mxGeometry width="275" height="231.5" as="geometry" />
        </mxCell>
        <mxCell id="RZGnPOqAcmDjlP5rCY_A-553" value="" style="image;points=[];aspect=fixed;html=1;align=center;shadow=0;dashed=0;image=img/lib/allied_telesis/computer_and_terminals/Personal_Computer_with_Server.svg;fontSize=16;" parent="RZGnPOqAcmDjlP5rCY_A-645" vertex="1">
          <mxGeometry x="56.5" y="30" width="162" height="162" as="geometry" />
        </mxCell>
        <mxCell id="RZGnPOqAcmDjlP5rCY_A-555" style="edgeStyle=none;curved=1;rounded=0;orthogonalLoop=1;jettySize=auto;html=1;fontSize=12;startSize=8;endSize=8;strokeWidth=4;strokeColor=#0000CC;endArrow=baseDash;endFill=0;startArrow=baseDash;startFill=0;entryX=0.5;entryY=1;entryDx=0;entryDy=0;entryPerimeter=0;" parent="RZGnPOqAcmDjlP5rCY_A-645" target="RZGnPOqAcmDjlP5rCY_A-557" edge="1">
          <mxGeometry relative="1" as="geometry">
            <mxPoint x="44.38000000000011" y="398.5000000000002" as="sourcePoint" />
            <mxPoint x="44.38000000000011" y="309.75" as="targetPoint" />
          </mxGeometry>
        </mxCell>
        <mxCell id="RZGnPOqAcmDjlP5rCY_A-556" value="Rede Lan&lt;br style=&quot;border-color: var(--border-color);&quot;&gt;Comunicação: TCP/IP" style="edgeLabel;html=1;align=center;verticalAlign=middle;resizable=0;points=[];fontSize=16;" parent="RZGnPOqAcmDjlP5rCY_A-555" vertex="1" connectable="0">
          <mxGeometry x="-0.1428" y="-3" relative="1" as="geometry">
            <mxPoint x="-23" y="-17" as="offset" />
          </mxGeometry>
        </mxCell>
        <mxCell id="RZGnPOqAcmDjlP5rCY_A-557" value="" style="sketch=0;pointerEvents=1;shadow=0;dashed=0;html=1;strokeColor=none;fillColor=#434445;aspect=fixed;labelPosition=center;verticalLabelPosition=bottom;verticalAlign=top;align=center;outlineConnect=0;shape=mxgraph.vvd.ethernet_port;fontSize=16;" parent="RZGnPOqAcmDjlP5rCY_A-645" vertex="1">
          <mxGeometry x="20" y="160" width="50" height="50" as="geometry" />
        </mxCell>
        <mxCell id="RZGnPOqAcmDjlP5rCY_A-646" value="" style="group" parent="1" vertex="1" connectable="0">
          <mxGeometry x="1020" y="220" width="275" height="398.5000000000002" as="geometry" />
        </mxCell>
        <mxCell id="RZGnPOqAcmDjlP5rCY_A-647" value="Computador Portaria" style="rounded=1;whiteSpace=wrap;html=1;absoluteArcSize=1;arcSize=14;strokeWidth=2;fontSize=16;glass=0;shadow=1;gradientColor=none;labelBackgroundColor=none;labelPosition=center;verticalLabelPosition=top;align=right;verticalAlign=bottom;" parent="RZGnPOqAcmDjlP5rCY_A-646" vertex="1">
          <mxGeometry width="275" height="231.5" as="geometry" />
        </mxCell>
        <mxCell id="RZGnPOqAcmDjlP5rCY_A-648" value="" style="image;points=[];aspect=fixed;html=1;align=center;shadow=0;dashed=0;image=img/lib/allied_telesis/computer_and_terminals/Personal_Computer_with_Server.svg;fontSize=16;" parent="RZGnPOqAcmDjlP5rCY_A-646" vertex="1">
          <mxGeometry x="90" y="34.75" width="162" height="162" as="geometry" />
        </mxCell>
        <mxCell id="RZGnPOqAcmDjlP5rCY_A-649" style="edgeStyle=none;curved=1;rounded=0;orthogonalLoop=1;jettySize=auto;html=1;fontSize=12;startSize=8;endSize=8;strokeWidth=4;strokeColor=#0000CC;endArrow=baseDash;endFill=0;startArrow=baseDash;startFill=0;entryX=0.5;entryY=1;entryDx=0;entryDy=0;entryPerimeter=0;" parent="RZGnPOqAcmDjlP5rCY_A-646" target="RZGnPOqAcmDjlP5rCY_A-651" edge="1">
          <mxGeometry relative="1" as="geometry">
            <mxPoint x="44.38000000000011" y="398.5000000000002" as="sourcePoint" />
            <mxPoint x="44.38000000000011" y="309.75" as="targetPoint" />
          </mxGeometry>
        </mxCell>
        <mxCell id="RZGnPOqAcmDjlP5rCY_A-650" value="Rede Lan&lt;br style=&quot;border-color: var(--border-color);&quot;&gt;Comunicação: TCP/IP" style="edgeLabel;html=1;align=center;verticalAlign=middle;resizable=0;points=[];fontSize=16;" parent="RZGnPOqAcmDjlP5rCY_A-649" vertex="1" connectable="0">
          <mxGeometry x="-0.1428" y="-3" relative="1" as="geometry">
            <mxPoint x="-23" y="-17" as="offset" />
          </mxGeometry>
        </mxCell>
        <mxCell id="RZGnPOqAcmDjlP5rCY_A-651" value="" style="sketch=0;pointerEvents=1;shadow=0;dashed=0;html=1;strokeColor=none;fillColor=#434445;aspect=fixed;labelPosition=center;verticalLabelPosition=bottom;verticalAlign=top;align=center;outlineConnect=0;shape=mxgraph.vvd.ethernet_port;fontSize=16;" parent="RZGnPOqAcmDjlP5rCY_A-646" vertex="1">
          <mxGeometry x="20" y="160" width="50" height="50" as="geometry" />
        </mxCell>
        <mxCell id="RZGnPOqAcmDjlP5rCY_A-652" value="" style="shape=mxgraph.signs.tech.usb;html=1;pointerEvents=1;fillColor=#525252;strokeColor=none;verticalLabelPosition=bottom;verticalAlign=top;align=center;fontSize=16;rotation=90;" parent="RZGnPOqAcmDjlP5rCY_A-646" vertex="1">
          <mxGeometry x="33.5" y="20" width="23" height="47" as="geometry" />
        </mxCell>
        <mxCell id="RZGnPOqAcmDjlP5rCY_A-653" value="&lt;font&gt;Leitor de Código de Barras&lt;/font&gt;" style="shape=ext;double=1;rounded=1;whiteSpace=wrap;html=1;fontSize=16;" parent="1" vertex="1">
          <mxGeometry x="910" y="228.5" width="80" height="70" as="geometry" />
        </mxCell>
        <mxCell id="RZGnPOqAcmDjlP5rCY_A-655" style="edgeStyle=none;curved=1;rounded=0;orthogonalLoop=1;jettySize=auto;html=1;entryX=0.5;entryY=1;entryDx=0;entryDy=0;entryPerimeter=0;fontSize=12;startSize=8;endSize=8;endArrow=none;endFill=0;" parent="1" source="RZGnPOqAcmDjlP5rCY_A-653" target="RZGnPOqAcmDjlP5rCY_A-652" edge="1">
          <mxGeometry relative="1" as="geometry" />
        </mxCell>
        <mxCell id="RZGnPOqAcmDjlP5rCY_A-659" value="" style="shape=mxgraph.signs.tech.usb;html=1;pointerEvents=1;fillColor=#525252;strokeColor=none;verticalLabelPosition=bottom;verticalAlign=top;align=center;fontSize=16;rotation=90;" parent="1" vertex="1">
          <mxGeometry x="1053.5" y="311.5" width="23" height="47" as="geometry" />
        </mxCell>
        <mxCell id="RZGnPOqAcmDjlP5rCY_A-660" value="Leitor RFID" style="shape=ext;double=1;rounded=1;whiteSpace=wrap;html=1;fontSize=16;" parent="1" vertex="1">
          <mxGeometry x="910" y="300" width="80" height="70" as="geometry" />
        </mxCell>
        <mxCell id="RZGnPOqAcmDjlP5rCY_A-661" style="edgeStyle=none;curved=1;rounded=0;orthogonalLoop=1;jettySize=auto;html=1;entryX=0.5;entryY=1;entryDx=0;entryDy=0;entryPerimeter=0;fontSize=12;startSize=8;endSize=8;endArrow=none;endFill=0;" parent="1" source="RZGnPOqAcmDjlP5rCY_A-660" target="RZGnPOqAcmDjlP5rCY_A-659" edge="1">
          <mxGeometry relative="1" as="geometry" />
        </mxCell>
        <mxCell id="RZGnPOqAcmDjlP5rCY_A-665" value="Firewall" style="rounded=1;whiteSpace=wrap;html=1;absoluteArcSize=1;arcSize=14;strokeWidth=2;fontSize=16;glass=0;shadow=1;gradientColor=none;labelBackgroundColor=none;labelPosition=center;verticalLabelPosition=top;align=right;verticalAlign=bottom;" parent="1" vertex="1">
          <mxGeometry x="610" y="190" width="230" height="270" as="geometry" />
        </mxCell>
        <mxCell id="RZGnPOqAcmDjlP5rCY_A-664" value="" style="image;aspect=fixed;html=1;points=[];align=center;fontSize=12;image=img/lib/azure2/networking/Azure_Firewall_Manager.svg;" parent="1" vertex="1">
          <mxGeometry x="642.08" y="250" width="165.84" height="142.14" as="geometry" />
        </mxCell>
        <mxCell id="RZGnPOqAcmDjlP5rCY_A-667" value="" style="sketch=0;pointerEvents=1;shadow=0;dashed=0;html=1;strokeColor=none;fillColor=#434445;aspect=fixed;labelPosition=center;verticalLabelPosition=bottom;verticalAlign=top;align=center;outlineConnect=0;shape=mxgraph.vvd.ethernet_port;fontSize=16;" parent="1" vertex="1">
          <mxGeometry x="670" y="380" width="50" height="50" as="geometry" />
        </mxCell>
        <mxCell id="RZGnPOqAcmDjlP5rCY_A-668" style="edgeStyle=none;curved=1;rounded=0;orthogonalLoop=1;jettySize=auto;html=1;fontSize=12;startSize=8;endSize=8;strokeWidth=4;strokeColor=#0000CC;endArrow=baseDash;endFill=0;startArrow=baseDash;startFill=0;entryX=0.5;entryY=1;entryDx=0;entryDy=0;entryPerimeter=0;" parent="1" target="RZGnPOqAcmDjlP5rCY_A-667" edge="1">
          <mxGeometry relative="1" as="geometry">
            <mxPoint x="694.3800000000001" y="618.5000000000002" as="sourcePoint" />
            <mxPoint x="694.3800000000001" y="529.75" as="targetPoint" />
          </mxGeometry>
        </mxCell>
        <mxCell id="RZGnPOqAcmDjlP5rCY_A-669" value="Rede Lan&lt;br style=&quot;border-color: var(--border-color);&quot;&gt;Comunicação: TCP/IP" style="edgeLabel;html=1;align=center;verticalAlign=middle;resizable=0;points=[];fontSize=16;" parent="RZGnPOqAcmDjlP5rCY_A-668" vertex="1" connectable="0">
          <mxGeometry x="-0.1428" y="-3" relative="1" as="geometry">
            <mxPoint x="-23" y="-17" as="offset" />
          </mxGeometry>
        </mxCell>
        <mxCell id="RZGnPOqAcmDjlP5rCY_A-677" value="" style="verticalLabelPosition=bottom;sketch=0;aspect=fixed;html=1;verticalAlign=top;strokeColor=none;align=center;outlineConnect=0;shape=mxgraph.citrix.database_server;fontSize=16;" parent="1" vertex="1">
          <mxGeometry x="662.5" y="-306" width="136.44" height="153.5" as="geometry" />
        </mxCell>
        <mxCell id="RZGnPOqAcmDjlP5rCY_A-679" value="" style="outlineConnect=0;dashed=0;verticalLabelPosition=bottom;verticalAlign=top;align=center;html=1;shape=mxgraph.aws3.internet;fillColor=#D2D3D3;gradientColor=none;fontSize=16;" parent="1" vertex="1">
          <mxGeometry x="590" y="-88.5" width="300" height="240" as="geometry" />
        </mxCell>
      </root>
    </mxGraphModel>
  </diagram>
</mxfile>
